<?xml version="1.0" encoding="UTF-8" standalone="no"?>
<svg
   width="241"
   height="1769"
   viewBox="0 0 241 1769"
   fill="none"
   version="1.1"
   id="svg93"
   xmlns="http://www.w3.org/2000/svg"
   xmlns:svg="http://www.w3.org/2000/svg">
  <path
     d="M 21.755323,0.11178848 H 9.2535035 c -4.96873,0 -8.99668004,4.02800002 -8.99668004,8.99670002 V 59.114788 c 0,4.969 4.02796004,8.997 8.99669004,8.997 h 68.7648095 11.4296 V 0.11178848 h -8.1873 c -2.0956,0 -4.1254,0.7315 -5.7392,2.06840002 l -9.0088,7.4626 c -1.6138,1.3369995 -3.6437,2.0679995 -5.7392,2.0679995 h -18.5308 c -2.0955,0 -4.1254,-0.731 -5.7392,-2.0679995 l -9.0088,-7.4626 c -1.6138,-1.33690002 -3.6437,-2.06840002 -5.7393,-2.06840002 z"
     fill="#4c97ff"
     id="path5" />
  <path
     d="M 9.2535035,1.1117885 H 21.755323 c 1.8627,0 3.6669,0.6502 5.1013,1.8385 l 9.0089,7.4624995 c 1.7932,1.486 4.0486,2.298 6.3771,2.298 h 18.5308 c 2.3285,0 4.5839,-0.812 6.3771,-2.298 l 9.0088,-7.4624995 c 1.4345,-1.1883 3.2387,-1.8385 5.1013,-1.8385 h 7.1873 V 67.111788 H 78.018323 9.2535135 c -4.41645,0 -7.99669,-3.58 -7.99669,-7.997 V 9.1084885 c 0,-4.4165 3.58024,-7.9967 7.99668,-7.9967 z"
     stroke="#3373cc"
     stroke-width="2"
     id="path6" />
  <g
     clip-path="url(#clip1_1_1690)"
     id="g8"
     transform="translate(0.25682346,-89.888212)">
    <path
       d="M 103.003,90 H 87 v 68 h 16.003 c 4.969,0 8.997,-4.028 8.997,-8.997 V 98.9967 C 112,94.028 107.972,90 103.003,90 Z"
       fill="#4c97ff"
       id="path7" />
    <path
       d="M 88,157 V 91 h 15.003 c 4.417,0 7.997,3.5802 7.997,7.9967 v 50.0063 c 0,4.417 -3.58,7.997 -7.997,7.997 z"
       stroke="#3373cc"
       stroke-width="2"
       id="path8" />
  </g>
  <rect
     x="86.256821"
     y="2.1117885"
     width="4"
     height="64"
     fill="#4c97ff"
     id="rect8" />
  <defs
     id="defs93">
    <clipPath
       id="clip1_1_1690">
      <rect
         width="25"
         height="68"
         fill="#ffffff"
         transform="translate(87,90)"
         id="rect74"
         x="0"
         y="0" />
    </clipPath>
  </defs>
</svg>
