<?xml version="1.0" encoding="UTF-8" standalone="no"?>
<svg
   width="241"
   height="1769"
   viewBox="0 0 241 1769"
   fill="none"
   version="1.1"
   id="svg93"
   xmlns="http://www.w3.org/2000/svg"
   xmlns:svg="http://www.w3.org/2000/svg">
  <g
     clip-path="url(#clip5_1_1690)"
     id="g18"
     transform="translate(0,-400.97636)">
    <path
       d="M 77.0791,429.98 H 95.93 c 2.2128,0 4.348,-0.815 5.998,-2.29 l 8.272,-7.399 c 1.65,-1.475 3.785,-2.291 5.998,-2.291 h 7.993 v 52 H 81.1978 c -2.2129,0 -4.3482,0.816 -5.9976,2.291 l -8.2727,7.399 c -1.6494,1.475 -3.7847,2.29 -5.9975,2.29 H 42.0791 c -2.1522,0 -4.233,-0.771 -5.8649,-2.174 L 27.337,472.174 C 25.7051,470.771 23.6242,470 21.4721,470 h -5.0683 l -7.19943,0.166 C 4.15567,470.283 0,466.222 0,461.172 V 401 h 37.0017 v 8 c 0,3.047 0.9136,5.74 2.7656,7.368 1.2688,1.021 2.8813,1.632 4.6365,1.632 h 12.0683 c 2.1521,0 4.233,0.771 5.8649,2.174 l 8.8772,7.632 c 1.6319,1.403 3.7127,2.174 5.8649,2.174 z"
       fill="#ffab19"
       id="path17" />
    <path
       d="M 1,461.172 V 402 h 35.0017 v 7 c 0,3.217 0.9626,6.235 3.1053,8.119 l 0.0164,0.015 0.0171,0.013 c 1.44,1.159 3.272,1.853 5.2633,1.853 h 12.0683 c 1.9129,0 3.7625,0.686 5.213,1.933 l 8.8772,7.631 c 1.8133,1.559 4.1254,2.416 6.5168,2.416 H 95.93 c 2.4588,0 4.831,-0.906 6.664,-2.545 l 8.273,-7.399 c 1.466,-1.311 3.364,-2.036 5.331,-2.036 h 6.993 v 50 H 81.1978 c -2.4589,0 -4.8315,0.906 -6.6642,2.545 l -8.2727,7.399 c -1.4661,1.311 -3.364,2.036 -5.3309,2.036 H 42.0791 c -1.9129,0 -3.7625,-0.685 -5.213,-1.932 l -8.8772,-7.632 C 26.1756,469.857 23.8635,469 21.4721,469 h -5.0683 -0.0115 -0.0115 l -7.19952,0.167 C 4.69376,469.27 1,465.661 1,461.172 Z"
       stroke="#cf8b17"
       stroke-width="2"
       id="path18" />
  </g>
  <g
     clip-path="url(#clip6_1_1690)"
     id="g20"
     transform="translate(0,-400.97636)">
    <path
       d="M 232.003,418 H 124 v 52 h 108.003 c 4.969,0 8.997,-4.028 8.997,-8.997 V 426.997 C 241,422.028 236.972,418 232.003,418 Z"
       fill="#ffab19"
       id="path19" />
    <path
       d="m 125,469 v -50 h 107.003 c 4.417,0 7.997,3.58 7.997,7.997 v 34.006 c 0,4.417 -3.58,7.997 -7.997,7.997 z"
       stroke="#cf8b17"
       stroke-width="2"
       id="path20" />
  </g>
  <rect
     x="122.191"
     y="19.02364"
     width="4"
     height="48"
     fill="#ffab19"
     id="rect20" />
  <defs
     id="defs93">
    <clipPath
       id="clip5_1_1690">
      <rect
         width="125"
         height="81"
         fill="#ffffff"
         transform="translate(0,401)"
         id="rect78"
         x="0"
         y="0" />
    </clipPath>
    <clipPath
       id="clip6_1_1690">
      <rect
         width="117"
         height="52"
         fill="#ffffff"
         transform="translate(124,418)"
         id="rect79"
         x="0"
         y="0" />
    </clipPath>
  </defs>
</svg>
