<?xml version="1.0" encoding="UTF-8" standalone="no"?>
<svg
   width="241"
   height="1769"
   viewBox="0 0 241 1769"
   fill="none"
   version="1.1"
   id="svg93"
   xmlns="http://www.w3.org/2000/svg"
   xmlns:svg="http://www.w3.org/2000/svg">
  <g
     clip-path="url(#clip7_1_1690)"
     id="g25"
     transform="translate(-3.374393e-8,-491.77716)">
    <path
       d="M 77.0791,520.961 H 95.93 c 2.2128,0 4.348,-0.816 5.998,-2.291 l 8.272,-7.399 c 1.65,-1.475 3.785,-2.291 5.998,-2.291 h 7.993 v 52 H 97.1978 37.4721 16.4038 9.20437 c -0.15261,0.004 -0.3044,0.004 -0.45529,0 C 3.90984,560.938 0,557.002 0,552.152 V 491.98 h 37 v 8 c 0,3.047 0.9144,5.741 2.7671,7.369 1.269,1.021 2.8815,1.631 4.6367,1.631 h 12.0683 c 2.1521,0 4.233,0.772 5.8649,2.175 l 8.8772,7.631 c 1.6319,1.403 3.7127,2.175 5.8649,2.175 z"
       fill="#ffab19"
       id="path21" />
    <path
       d="m 116.198,509.98 h 6.993 v 50 H 97.1978 37.4721 16.4038 9.20437 9.19282 l -0.01154,10e-4 C 9.04457,559.984 8.90872,559.984 8.7738,559.98 H 8.76582 8.75784 C 4.46697,559.943 1,556.452 1,552.152 V 492.98 h 35 v 7 c 0,3.218 0.9635,6.236 3.1069,8.12 l 0.0164,0.015 0.0171,0.013 c 1.4401,1.159 3.2721,1.852 5.2634,1.852 h 12.0683 c 1.9129,0 3.7625,0.686 5.213,1.933 l 8.8772,7.632 c 1.8133,1.559 4.1254,2.416 6.5168,2.416 H 95.93 c 2.4588,0 4.831,-0.906 6.664,-2.546 l 8.273,-7.398 c 1.466,-1.312 3.364,-2.037 5.331,-2.037 z"
       stroke="#cf8b17"
       stroke-width="2"
       id="path22" />
    <g
       clip-path="url(#clip8_1_1690)"
       id="g24">
      <path
         d="M 232.003,509 H 124 v 52 h 108.003 c 4.969,0 8.997,-4.028 8.997,-8.997 V 517.997 C 241,513.028 236.972,509 232.003,509 Z"
         fill="#ffab19"
         id="path23" />
      <path
         d="m 125,560 v -50 h 107.003 c 4.417,0 7.997,3.58 7.997,7.997 v 34.006 c 0,4.417 -3.58,7.997 -7.997,7.997 z"
         stroke="#cf8b17"
         stroke-width="2"
         id="path24" />
    </g>
    <rect
       x="122.191"
       y="510.983"
       width="4"
       height="48"
       fill="#ffab19"
       id="rect24" />
  </g>
  <defs
     id="defs93">
    <clipPath
       id="clip7_1_1690">
      <rect
         width="241"
         height="69"
         fill="#ffffff"
         transform="translate(0,492)"
         id="rect80"
         x="0"
         y="0" />
    </clipPath>
    <clipPath
       id="clip8_1_1690">
      <rect
         width="117"
         height="52"
         fill="#ffffff"
         transform="translate(124,509)"
         id="rect81"
         x="0"
         y="0" />
    </clipPath>
  </defs>
</svg>
