<svg width="241" height="1769" viewBox="0 0 241 1769" fill="none" xmlns="http://www.w3.org/2000/svg">
<path d="M0 8.99668C0 4.02795 4.02795 0 8.99668 0H21.4985C23.5941 0 25.624 0.731537 27.2378 2.06836L36.2466 9.53102C37.8604 10.8679 39.8903 11.5994 41.9858 11.5994H60.5166C62.6121 11.5994 64.642 10.8679 66.2558 9.53103L75.2646 2.06837C76.8784 0.731538 78.9082 0 81.0038 0H89.1911V68H81.1978C78.9849 68 76.8496 68.8156 75.2002 70.2908L66.9275 77.6896C65.2781 79.1648 63.1428 79.9803 60.9299 79.9803H42.0791C39.9269 79.9803 37.8461 79.2089 36.2141 77.8059L27.337 70.1744C25.7051 68.7715 23.6242 68 21.4721 68H8.99667C4.02794 68 0 63.972 0 59.0033V8.99668Z" fill="#4C97FF"/>
<path d="M1 8.99668C1 4.58024 4.58024 1 8.99668 1H21.4985C23.3612 1 25.1654 1.65023 26.5998 2.83846L35.6087 10.3011C37.4019 11.7865 39.6573 12.5994 41.9858 12.5994H60.5166C62.8451 12.5994 65.1005 11.7865 66.8937 10.3011L75.9025 2.83846C77.337 1.65023 79.1412 1 81.0038 1H88.1911V67H81.1978C78.7389 67 76.3663 67.9062 74.5336 69.5454L66.2609 76.9442C64.7948 78.2554 62.8969 78.9803 60.9299 78.9803H42.0791C40.1662 78.9803 38.3166 78.2946 36.866 77.0476L27.9889 69.4161C26.1756 67.8572 23.8634 67 21.4721 67H8.99667C4.58023 67 1 63.4198 1 59.0033V8.99668Z" stroke="#3373CC" stroke-width="2"/>
<g clip-path="url(#clip0_1_1690)">
<path d="M103.003 0H87V68H103.003C107.972 68 112 63.972 112 59.0033V8.99668C112 4.02795 107.972 0 103.003 0Z" fill="#4C97FF"/>
<path d="M88 67V1H103.003C107.42 1 111 4.58024 111 8.99668V59.0033C111 63.4198 107.42 67 103.003 67H88Z" stroke="#3373CC" stroke-width="2"/>
</g>
<rect x="86" y="2" width="4" height="64" fill="#4C97FF"/>
<path d="M21.4985 90H8.99668C4.02795 90 0 94.028 0 98.9967V149.003C0 153.972 4.02796 158 8.99669 158H77.7615H89.1911V90H81.0038C78.9082 90 76.8784 90.7315 75.2646 92.0684L66.2558 99.531C64.642 100.868 62.6121 101.599 60.5166 101.599H41.9858C39.8903 101.599 37.8604 100.868 36.2466 99.531L27.2378 92.0684C25.624 90.7315 23.5941 90 21.4985 90Z" fill="#4C97FF"/>
<path d="M8.99668 91H21.4985C23.3612 91 25.1654 91.6502 26.5998 92.8385L35.6087 100.301C37.4019 101.787 39.6573 102.599 41.9858 102.599H60.5166C62.8451 102.599 65.1005 101.787 66.8937 100.301L75.9025 92.8385C77.337 91.6502 79.1412 91 81.0038 91H88.1911V157H77.7615H8.99669C4.58024 157 1 153.42 1 149.003V98.9967C1 94.5802 4.58024 91 8.99668 91Z" stroke="#3373CC" stroke-width="2"/>
<g clip-path="url(#clip1_1_1690)">
<path d="M103.003 90H87V158H103.003C107.972 158 112 153.972 112 149.003V98.9967C112 94.028 107.972 90 103.003 90Z" fill="#4C97FF"/>
<path d="M88 157V91H103.003C107.42 91 111 94.5802 111 98.9967V149.003C111 153.42 107.42 157 103.003 157H88Z" stroke="#3373CC" stroke-width="2"/>
</g>
<rect x="86" y="92" width="4" height="64" fill="#4C97FF"/>
<path d="M8.99667 272H21.4721C23.6242 272 25.7051 272.771 27.337 274.174L36.2141 281.806C37.8461 283.209 39.9269 283.98 42.0791 283.98H60.9299C63.1428 283.98 65.2781 283.165 66.9275 281.689L75.2002 274.291C76.8496 272.815 78.9849 272 81.1978 272H151.191V204H142.449C142.449 204 124.664 180.386 73.741 180.386C22.8184 180.386 0 204 0 204V263.003C0 267.972 4.02794 272 8.99667 272Z" fill="#FFBF00"/>
<path d="M141.65 204.601L141.651 204.602L141.651 204.603L141.95 205H142.449H150.191V271H81.1978C78.7389 271 76.3663 271.906 74.5336 273.545L66.2609 280.944C64.7948 282.255 62.8969 282.98 60.9299 282.98H42.0791C40.1662 282.98 38.3166 282.294 36.866 281.047L27.9889 273.416C26.1756 271.857 23.8634 271 21.4721 271H8.99667C4.58023 271 1 267.42 1 263.003V204.419C1.17047 204.255 1.41874 204.023 1.74583 203.731C2.44984 203.103 3.51889 202.198 4.96323 201.109C7.85188 198.93 12.2413 196.013 18.2139 193.091C30.1548 187.251 48.4404 181.386 73.741 181.386C99.0406 181.386 116.052 187.25 126.712 193.071C132.045 195.983 135.796 198.888 138.206 201.054C139.411 202.137 140.281 203.035 140.845 203.657C141.127 203.968 141.332 204.21 141.466 204.371C141.532 204.452 141.58 204.512 141.611 204.551C141.619 204.561 141.625 204.569 141.63 204.576C141.636 204.583 141.64 204.589 141.644 204.593L141.65 204.601Z" stroke="#CC9900" stroke-width="2"/>
<g clip-path="url(#clip2_1_1690)">
<path d="M203.003 204H149V272H203.003C207.972 272 212 267.972 212 263.003V212.997C212 208.028 207.972 204 203.003 204Z" fill="#FFBF00"/>
<path d="M150 271V205H203.003C207.42 205 211 208.58 211 212.997V263.003C211 267.42 207.42 271 203.003 271H150Z" stroke="#CC9900" stroke-width="2"/>
</g>
<rect x="147" y="206" width="4" height="64" fill="#FFBF00"/>
<g clip-path="url(#clip3_1_1690)">
<path d="M124.191 294L124.191 362H116.198C113.985 362 111.85 362.816 110.2 364.291L101.928 371.69C100.278 373.165 98.1428 373.98 95.9299 373.98H77.0791C74.9269 373.98 72.8461 373.209 71.2141 371.806L62.337 364.174C60.7051 362.771 58.6242 362 56.4721 362H44.4038C42.6486 362 41.036 362.611 39.7671 363.631C37.9144 365.26 37 367.953 37 371V379H0V302.997C0 298.028 4.02795 294 8.99668 294H21.4985C23.5941 294 25.624 294.732 27.2378 296.068L36.2466 303.531C37.8604 304.868 39.8903 305.599 41.9858 305.599H60.5166C62.6121 305.599 64.642 304.868 66.2558 303.531L75.2646 296.068C76.8784 294.732 78.9083 294 81.0038 294H124.191Z" fill="#FFAB19"/>
<path d="M36 371V378H1V302.997C1 298.58 4.58024 295 8.99668 295H21.4985C23.3612 295 25.1654 295.65 26.5998 296.838L35.6087 304.301C37.4019 305.787 39.6573 306.599 41.9858 306.599H60.5166C62.8451 306.599 65.1005 305.787 66.8937 304.301L75.9025 296.838C77.337 295.65 79.1412 295 81.0038 295H123.191L123.191 361H116.198C113.739 361 111.366 361.906 109.534 363.545L101.261 370.944C99.7948 372.255 97.8969 372.98 95.9299 372.98H77.0791C75.1662 372.98 73.3166 372.295 71.866 371.048L62.9889 363.416C61.1756 361.857 58.8634 361 56.4721 361H44.4038C42.4125 361 40.5805 361.694 39.1403 362.852L39.1233 362.866L39.1069 362.88C36.9634 364.764 36 367.783 36 371Z" stroke="#CF8B17" stroke-width="2"/>
<g clip-path="url(#clip4_1_1690)">
<path d="M232.003 294H124V362H232.003C236.972 362 241 357.972 241 353.003V302.997C241 298.028 236.972 294 232.003 294Z" fill="#FFAB19"/>
<path d="M125 361V295H232.003C236.42 295 240 298.58 240 302.997V353.003C240 357.42 236.42 361 232.003 361H125Z" stroke="#CF8B17" stroke-width="2"/>
</g>
<rect x="122.191" y="296" width="4" height="64" fill="#FFAB19"/>
</g>
<g clip-path="url(#clip5_1_1690)">
<path d="M77.0791 429.98H95.93C98.1428 429.98 100.278 429.165 101.928 427.69L110.2 420.291C111.85 418.816 113.985 418 116.198 418H124.191L124.191 470H81.1978C78.9849 470 76.8496 470.816 75.2002 472.291L66.9275 479.69C65.2781 481.165 63.1428 481.98 60.93 481.98H42.0791C39.9269 481.98 37.8461 481.209 36.2142 479.806L27.337 472.174C25.7051 470.771 23.6242 470 21.4721 470H16.4038L9.20437 470.166C4.15567 470.283 0 466.222 0 461.172V401H37.0017V409C37.0017 412.047 37.9153 414.74 39.7673 416.368C41.0361 417.389 42.6486 418 44.4038 418H56.4721C58.6242 418 60.7051 418.771 62.337 420.174L71.2142 427.806C72.8461 429.209 74.9269 429.98 77.0791 429.98Z" fill="#FFAB19"/>
<path d="M1 461.172V402H36.0017V409C36.0017 412.217 36.9643 415.235 39.107 417.119L39.1234 417.134L39.1405 417.147C40.5805 418.306 42.4125 419 44.4038 419H56.4721C58.385 419 60.2346 419.686 61.6851 420.933L70.5623 428.564C72.3756 430.123 74.6877 430.98 77.0791 430.98H95.93C98.3888 430.98 100.761 430.074 102.594 428.435L110.867 421.036C112.333 419.725 114.231 419 116.198 419H123.191L123.191 469H81.1978C78.7389 469 76.3663 469.906 74.5336 471.545L66.2609 478.944C64.7948 480.255 62.8969 480.98 60.93 480.98H42.0791C40.1662 480.98 38.3166 480.295 36.8661 479.048L27.9889 471.416C26.1756 469.857 23.8635 469 21.4721 469H16.4038H16.3923L16.3808 469L9.18128 469.167C4.69376 469.27 1 465.661 1 461.172Z" stroke="#CF8B17" stroke-width="2"/>
</g>
<g clip-path="url(#clip6_1_1690)">
<path d="M232.003 418H124V470H232.003C236.972 470 241 465.972 241 461.003V426.997C241 422.028 236.972 418 232.003 418Z" fill="#FFAB19"/>
<path d="M125 469V419H232.003C236.42 419 240 422.58 240 426.997V461.003C240 465.42 236.42 469 232.003 469H125Z" stroke="#CF8B17" stroke-width="2"/>
</g>
<rect x="122.191" y="420" width="4" height="48" fill="#FFAB19"/>
<g clip-path="url(#clip7_1_1690)">
<path d="M77.0791 520.961H95.93C98.1428 520.961 100.278 520.145 101.928 518.67L110.2 511.271C111.85 509.796 113.985 508.98 116.198 508.98H124.191L124.191 560.98H97.1978H37.4721H16.4038H9.20437C9.05176 560.984 8.89997 560.984 8.74908 560.98C3.90984 560.938 0 557.002 0 552.152V491.98H37V499.98C37 503.027 37.9144 505.721 39.7671 507.349C41.0361 508.37 42.6486 508.98 44.4038 508.98H56.4721C58.6242 508.98 60.7051 509.752 62.337 511.155L71.2142 518.786C72.8461 520.189 74.9269 520.961 77.0791 520.961Z" fill="#FFAB19"/>
<path d="M116.198 509.98H123.191L123.191 559.98H97.1978H37.4721H16.4038H9.20437H9.19282L9.18128 559.981C9.04457 559.984 8.90872 559.984 8.7738 559.98L8.76582 559.98L8.75784 559.98C4.46697 559.943 1 556.452 1 552.152V492.98H36V499.98C36 503.198 36.9635 506.216 39.1069 508.1L39.1233 508.115L39.1404 508.128C40.5805 509.287 42.4125 509.98 44.4038 509.98H56.4721C58.385 509.98 60.2346 510.666 61.6851 511.913L70.5623 519.545C72.3756 521.104 74.6877 521.961 77.0791 521.961H95.93C98.3888 521.961 100.761 521.055 102.594 519.415L110.867 512.017C112.333 510.705 114.231 509.98 116.198 509.98Z" stroke="#CF8B17" stroke-width="2"/>
<g clip-path="url(#clip8_1_1690)">
<path d="M232.003 509H124V561H232.003C236.972 561 241 556.972 241 552.003V517.997C241 513.028 236.972 509 232.003 509Z" fill="#FFAB19"/>
<path d="M125 560V510H232.003C236.42 510 240 513.58 240 517.997V552.003C240 556.42 236.42 560 232.003 560H125Z" stroke="#CF8B17" stroke-width="2"/>
</g>
<rect x="122.191" y="510.983" width="4" height="48" fill="#FFAB19"/>
</g>
<g clip-path="url(#clip9_1_1690)">
<path d="M124.191 583L124.191 651H116.198C113.985 651 111.85 651.816 110.2 653.291L101.928 660.69C100.278 662.165 98.1428 662.98 95.9299 662.98H77.0791C74.9269 662.98 72.8461 662.209 71.2141 660.806L62.337 653.174C60.7051 651.771 58.6242 651 56.4721 651H44.4038C42.6486 651 41.036 651.611 39.7671 652.631C37.9144 654.26 37 656.953 37 660V668H0V591.997C0 587.028 4.02795 583 8.99668 583H21.4985C23.5941 583 25.624 583.732 27.2378 585.068L36.2466 592.531C37.8604 593.868 39.8903 594.599 41.9858 594.599H60.5166C62.6121 594.599 64.642 593.868 66.2558 592.531L75.2646 585.068C76.8784 583.732 78.9083 583 81.0038 583H124.191Z" fill="#FFAB19"/>
<path d="M36 660V667H1V591.997C1 587.58 4.58024 584 8.99668 584H21.4985C23.3612 584 25.1654 584.65 26.5998 585.838L35.6087 593.301C37.4019 594.787 39.6573 595.599 41.9858 595.599H60.5166C62.8451 595.599 65.1005 594.787 66.8937 593.301L75.9025 585.838C77.337 584.65 79.1412 584 81.0038 584H123.191L123.191 650H116.198C113.739 650 111.366 650.906 109.534 652.545L101.261 659.944C99.7948 661.255 97.8969 661.98 95.9299 661.98H77.0791C75.1662 661.98 73.3166 661.295 71.866 660.048L62.9889 652.416C61.1756 650.857 58.8634 650 56.4721 650H44.4038C42.4125 650 40.5805 650.694 39.1403 651.852L39.1233 651.866L39.1069 651.88C36.9634 653.764 36 656.783 36 660Z" stroke="#CF8B17" stroke-width="2"/>
<g clip-path="url(#clip10_1_1690)">
<path d="M232.003 583H124V651H232.003C236.972 651 241 646.972 241 642.003V591.997C241 587.028 236.972 583 232.003 583Z" fill="#FFAB19"/>
<path d="M125 650V584H232.003C236.42 584 240 587.58 240 591.997V642.003C240 646.42 236.42 650 232.003 650H125Z" stroke="#CF8B17" stroke-width="2"/>
</g>
<rect x="122.191" y="585" width="4" height="64" fill="#FFAB19"/>
</g>
<g clip-path="url(#clip11_1_1690)">
<path d="M124.191 715L124.191 767H116.198C113.985 767 111.85 767.816 110.2 769.291L101.928 776.69C100.278 778.165 98.1428 778.98 95.9299 778.98H77.0791C74.9269 778.98 72.8461 778.209 71.2141 776.806L62.337 769.174C60.7051 767.771 58.6242 767 56.4721 767H44.4038C42.6486 767 41.036 767.611 39.7671 768.631C37.9144 770.26 37 772.953 37 776V784H0V698H37V706C37 710.971 39.4333 715 44.4038 715H56.4721C58.5677 715 60.5975 715.732 62.2113 717.068L71.2202 724.531C72.834 725.868 74.8638 726.599 76.9594 726.599H95.4901C97.5857 726.599 99.6155 725.868 101.229 724.531L110.238 717.068C111.852 715.732 113.882 715 115.977 715H124.191Z" fill="#FFAB19"/>
<path d="M36 776V783H1V699H36V706C36 708.633 36.6424 711.116 38.0399 712.967C39.4633 714.852 41.6131 716 44.4038 716H56.4721C58.3348 716 60.139 716.65 61.5734 717.838L70.5822 725.301C72.3754 726.787 74.6309 727.599 76.9594 727.599H95.4901C97.8186 727.599 100.074 726.787 101.867 725.301L110.876 717.838C112.311 716.65 114.115 716 115.977 716H123.191L123.191 766H116.198C113.739 766 111.366 766.906 109.534 768.545L101.261 775.944C99.7948 777.255 97.8969 777.98 95.9299 777.98H77.0791C75.1662 777.98 73.3166 777.295 71.866 776.048L62.9889 768.416C61.1756 766.857 58.8634 766 56.4721 766H44.4038C42.4125 766 40.5805 766.694 39.1403 767.852L39.1233 767.866L39.1069 767.88C36.9634 769.764 36 772.783 36 776Z" stroke="#CF8B17" stroke-width="2"/>
<g clip-path="url(#clip12_1_1690)">
<path d="M232.003 715H124V767H232.003C236.972 767 241 762.972 241 758.003V723.997C241 719.028 236.972 715 232.003 715Z" fill="#FFAB19"/>
<path d="M125 766V716H232.003C236.42 716 240 719.58 240 723.997V758.003C240 762.42 236.42 766 232.003 766H125Z" stroke="#CF8B17" stroke-width="2"/>
</g>
<rect x="122.191" y="717" width="4" height="48" fill="#FFAB19"/>
</g>
<path d="M0 668H37V698H0V668Z" fill="#FFAB19"/>
<path d="M1 669H36V697H1V669Z" stroke="#CF8B17" stroke-width="2"/>
<path d="M2 666H35V700H2V666Z" fill="#FFAB19"/>
<g clip-path="url(#clip13_1_1690)">
<g clip-path="url(#clip14_1_1690)">
<path d="M77.0791 883H95.93C98.1428 883 100.278 882.184 101.928 880.709L110.2 873.31C111.85 871.835 113.985 871.02 116.198 871.02H124.191L124.191 923.02H81.1978C78.9849 923.02 76.8496 923.835 75.2002 925.31L66.9275 932.709C65.2781 934.184 63.1428 935 60.93 935H42.0791C39.9269 935 37.8461 934.228 36.2142 932.825L27.337 925.194C25.7051 923.791 23.6242 923.02 21.4721 923.02H16.4038L9.20437 923.186C4.15567 923.302 0 919.242 0 914.191V854.02H37.0017V862.02C37.0017 865.066 37.9153 867.76 39.7673 869.388C41.0361 870.409 42.6486 871.02 44.4038 871.02H56.4721C58.6242 871.02 60.7051 871.791 62.337 873.194L71.2142 880.825C72.8461 882.228 74.9269 883 77.0791 883Z" fill="#FFAB19"/>
<path d="M1 914.191V855.02H36.0017V862.02C36.0017 865.236 36.9643 868.255 39.107 870.139L39.1234 870.153L39.1405 870.167C40.5805 871.326 42.4125 872.02 44.4038 872.02H56.4721C58.385 872.02 60.2346 872.705 61.6851 873.952L70.5623 881.584C72.3756 883.143 74.6877 884 77.0791 884H95.93C98.3888 884 100.761 883.094 102.594 881.454L110.867 874.056C112.333 872.744 114.231 872.02 116.198 872.02H123.191L123.191 922.02H81.1978C78.7389 922.02 76.3663 922.926 74.5336 924.565L66.2609 931.964C64.7948 933.275 62.8969 934 60.93 934H42.0791C40.1662 934 38.3166 933.314 36.8661 932.067L27.9889 924.436C26.1756 922.877 23.8635 922.02 21.4721 922.02H16.4038H16.3923L16.3808 922.02L9.18128 922.186C4.69376 922.29 1 918.68 1 914.191Z" stroke="#CF8B17" stroke-width="2"/>
</g>
<g clip-path="url(#clip15_1_1690)">
<path d="M232.003 871.02H124V923.02H232.003C236.972 923.02 241 918.992 241 914.023V880.016C241 875.047 236.972 871.02 232.003 871.02Z" fill="#FFAB19"/>
<path d="M125 922.02V872.02H232.003C236.42 872.02 240 875.6 240 880.016V914.023C240 918.439 236.42 922.02 232.003 922.02H125Z" stroke="#CF8B17" stroke-width="2"/>
</g>
<rect x="122.191" y="873.02" width="4" height="48" fill="#FFAB19"/>
<path d="M0 824.02H37V854.02H0V824.02Z" fill="#FFAB19"/>
<path d="M1 825.02H36V853.02H1V825.02Z" stroke="#CF8B17" stroke-width="2"/>
<path d="M2 822.02H35V856.02H2V822.02Z" fill="#FFAB19"/>
</g>
<g clip-path="url(#clip16_1_1690)">
<path d="M124.191 975L124.191 1027H116.198C113.985 1027 111.85 1027.82 110.2 1029.29L101.928 1036.69C100.278 1038.16 98.1428 1038.98 95.9299 1038.98H77.0791C74.9269 1038.98 72.8461 1038.21 71.2141 1036.81L62.337 1029.17C60.7051 1027.77 58.6242 1027 56.4721 1027H44.4038C42.6486 1027 41.036 1027.61 39.7671 1028.63C37.9144 1030.26 37 1032.95 37 1036V1044H0V958H37V966C37 970.971 39.4333 975 44.4038 975H56.4721C58.5677 975 60.5975 975.732 62.2113 977.068L71.2202 984.531C72.834 985.868 74.8638 986.599 76.9594 986.599H95.4901C97.5857 986.599 99.6155 985.868 101.229 984.531L110.238 977.068C111.852 975.732 113.882 975 115.977 975H124.191Z" fill="#FFAB19"/>
<path d="M36 1036V1043H1V959H36V966C36 968.633 36.6424 971.116 38.0399 972.967C39.4633 974.852 41.6131 976 44.4038 976H56.4721C58.3348 976 60.139 976.65 61.5734 977.838L70.5822 985.301C72.3754 986.787 74.6309 987.599 76.9594 987.599H95.4901C97.8186 987.599 100.074 986.787 101.867 985.301L110.876 977.838C112.311 976.65 114.115 976 115.977 976H123.191L123.191 1026H116.198C113.739 1026 111.366 1026.91 109.534 1028.55L101.261 1035.94C99.7948 1037.26 97.8969 1037.98 95.9299 1037.98H77.0791C75.1662 1037.98 73.3166 1037.29 71.866 1036.05L62.9889 1028.42C61.1756 1026.86 58.8634 1026 56.4721 1026H44.4038C42.4125 1026 40.5805 1026.69 39.1403 1027.85L39.1233 1027.87L39.1069 1027.88C36.9634 1029.76 36 1032.78 36 1036Z" stroke="#CF8B17" stroke-width="2"/>
<g clip-path="url(#clip17_1_1690)">
<path d="M232.003 975H124V1027H232.003C236.972 1027 241 1022.97 241 1018V983.997C241 979.028 236.972 975 232.003 975Z" fill="#FFAB19"/>
<path d="M125 1026V976H232.003C236.42 976 240 979.58 240 983.997V1018C240 1022.42 236.42 1026 232.003 1026H125Z" stroke="#CF8B17" stroke-width="2"/>
</g>
<rect x="122.191" y="977" width="4" height="48" fill="#FFAB19"/>
</g>
<rect x="0.5" y="1082.5" width="53" height="43" rx="19.5" fill="white"/>
<rect x="0.5" y="1082.5" width="53" height="43" rx="19.5" stroke="#3373CC"/>
<path d="M32.3789 1104.72C32.3789 1107.26 31.9453 1109.15 31.0781 1110.38C30.2109 1111.62 28.8555 1112.23 27.0117 1112.23C25.1914 1112.23 23.8438 1111.63 22.9688 1110.43C22.0938 1109.22 21.6406 1107.41 21.6094 1105.02V1102.12C21.6094 1099.61 22.043 1097.75 22.9102 1096.53C23.7773 1095.31 25.1367 1094.7 26.9883 1094.7C28.8242 1094.7 30.1758 1095.29 31.043 1096.47C31.9102 1097.64 32.3555 1099.46 32.3789 1101.91V1104.72ZM30.2109 1101.76C30.2109 1099.92 29.9531 1098.59 29.4375 1097.75C28.9219 1096.91 28.1055 1096.48 26.9883 1096.48C25.8789 1096.48 25.0703 1096.9 24.5625 1097.74C24.0547 1098.57 23.793 1099.86 23.7773 1101.59V1105.06C23.7773 1106.91 24.043 1108.27 24.5742 1109.15C25.1133 1110.03 25.9258 1110.46 27.0117 1110.46C28.082 1110.46 28.875 1110.05 29.3906 1109.22C29.9141 1108.39 30.1875 1107.09 30.2109 1105.31V1101.76Z" fill="#575E75"/>
<rect x="0.5" y="1148.5" width="53" height="43" rx="19.5" fill="#575E75"/>
<rect x="0.5" y="1148.5" width="53" height="43" rx="19.5" stroke="white"/>
<rect x="0.5" y="1214.5" width="226.71" height="43" rx="19.5" fill="#4280D7"/>
<rect x="0.5" y="1214.5" width="226.71" height="43" rx="19.5" stroke="#3373CC"/>
<path d="M24.1758 1233.27C23.8477 1233.21 23.4922 1233.18 23.1094 1233.18C21.6875 1233.18 20.7227 1233.79 20.2148 1235V1244H18.0469V1231.32H20.1562L20.1914 1232.79C20.9023 1231.65 21.9102 1231.09 23.2148 1231.09C23.6367 1231.09 23.957 1231.14 24.1758 1231.25V1233.27ZM33.5391 1244C33.4141 1243.75 33.3125 1243.3 33.2344 1242.66C32.2266 1243.71 31.0234 1244.23 29.625 1244.23C28.375 1244.23 27.3477 1243.88 26.543 1243.18C25.7461 1242.47 25.3477 1241.57 25.3477 1240.48C25.3477 1239.16 25.8477 1238.14 26.8477 1237.41C27.8555 1236.68 29.2695 1236.31 31.0898 1236.31H33.1992V1235.32C33.1992 1234.56 32.9727 1233.96 32.5195 1233.51C32.0664 1233.06 31.3984 1232.83 30.5156 1232.83C29.7422 1232.83 29.0938 1233.03 28.5703 1233.42C28.0469 1233.81 27.7852 1234.28 27.7852 1234.84H25.6055C25.6055 1234.2 25.8281 1233.59 26.2734 1233.01C26.7266 1232.41 27.3359 1231.95 28.1016 1231.6C28.875 1231.26 29.7227 1231.09 30.6445 1231.09C32.1055 1231.09 33.25 1231.45 34.0781 1232.19C34.9062 1232.91 35.3359 1233.92 35.3672 1235.2V1241.04C35.3672 1242.2 35.5156 1243.12 35.8125 1243.81V1244H33.5391ZM29.9414 1242.35C30.6211 1242.35 31.2656 1242.17 31.875 1241.82C32.4844 1241.47 32.9258 1241.01 33.1992 1240.45V1237.85H31.5C28.8438 1237.85 27.5156 1238.62 27.5156 1240.18C27.5156 1240.86 27.7422 1241.39 28.1953 1241.77C28.6484 1242.16 29.2305 1242.35 29.9414 1242.35ZM40.8164 1231.32L40.8867 1232.91C41.8555 1231.7 43.1211 1231.09 44.6836 1231.09C47.3633 1231.09 48.7148 1232.6 48.7383 1235.62V1244H46.5703V1235.61C46.5625 1234.7 46.3516 1234.02 45.9375 1233.58C45.5312 1233.14 44.8945 1232.93 44.0273 1232.93C43.3242 1232.93 42.707 1233.11 42.1758 1233.49C41.6445 1233.86 41.2305 1234.36 40.9336 1234.96V1244H38.7656V1231.32H40.8164ZM51.4805 1237.55C51.4805 1235.61 51.9414 1234.05 52.8633 1232.87C53.7852 1231.68 54.9922 1231.09 56.4844 1231.09C57.9688 1231.09 59.1445 1231.59 60.0117 1232.61V1226H62.1797V1244H60.1875L60.082 1242.64C59.2148 1243.7 58.0078 1244.23 56.4609 1244.23C54.9922 1244.23 53.793 1243.63 52.8633 1242.43C51.9414 1241.23 51.4805 1239.66 51.4805 1237.72V1237.55ZM53.6484 1237.8C53.6484 1239.24 53.9453 1240.36 54.5391 1241.18C55.1328 1241.99 55.9531 1242.39 57 1242.39C58.375 1242.39 59.3789 1241.78 60.0117 1240.54V1234.72C59.3633 1233.52 58.3672 1232.93 57.0234 1232.93C55.9609 1232.93 55.1328 1233.34 54.5391 1234.16C53.9453 1234.98 53.6484 1236.19 53.6484 1237.8ZM64.9805 1237.54C64.9805 1236.3 65.2227 1235.18 65.707 1234.19C66.1992 1233.2 66.8789 1232.43 67.7461 1231.89C68.6211 1231.36 69.6172 1231.09 70.7344 1231.09C72.4609 1231.09 73.8555 1231.68 74.918 1232.88C75.9883 1234.07 76.5234 1235.66 76.5234 1237.65V1237.8C76.5234 1239.04 76.2852 1240.14 75.8086 1241.13C75.3398 1242.11 74.6641 1242.87 73.7812 1243.41C72.9062 1243.96 71.8984 1244.23 70.7578 1244.23C69.0391 1244.23 67.6445 1243.64 66.5742 1242.44C65.5117 1241.25 64.9805 1239.66 64.9805 1237.7V1237.54ZM67.1602 1237.8C67.1602 1239.21 67.4844 1240.34 68.1328 1241.19C68.7891 1242.04 69.6641 1242.46 70.7578 1242.46C71.8594 1242.46 72.7344 1242.04 73.3828 1241.18C74.0312 1240.31 74.3555 1239.1 74.3555 1237.54C74.3555 1236.15 74.0234 1235.03 73.3594 1234.17C72.7031 1233.3 71.8281 1232.87 70.7344 1232.87C69.6641 1232.87 68.8008 1233.29 68.1445 1234.14C67.4883 1235 67.1602 1236.21 67.1602 1237.8ZM81.2812 1231.32L81.3398 1232.73C82.2695 1231.63 83.5234 1231.09 85.1016 1231.09C86.875 1231.09 88.082 1231.77 88.7227 1233.12C89.1445 1232.52 89.6914 1232.02 90.3633 1231.65C91.043 1231.27 91.8438 1231.09 92.7656 1231.09C95.5469 1231.09 96.9609 1232.56 97.0078 1235.5V1244H94.8398V1235.63C94.8398 1234.73 94.6328 1234.05 94.2188 1233.61C93.8047 1233.15 93.1094 1232.93 92.1328 1232.93C91.3281 1232.93 90.6602 1233.17 90.1289 1233.65C89.5977 1234.13 89.2891 1234.77 89.2031 1235.59V1244H87.0234V1235.69C87.0234 1233.85 86.1211 1232.93 84.3164 1232.93C82.8945 1232.93 81.9219 1233.53 81.3984 1234.74V1244H79.2305V1231.32H81.2812ZM116.953 1237.8C116.953 1239.73 116.512 1241.29 115.629 1242.46C114.746 1243.64 113.551 1244.23 112.043 1244.23C110.504 1244.23 109.293 1243.75 108.41 1242.77V1248.88H106.242V1231.32H108.223L108.328 1232.73C109.211 1231.63 110.438 1231.09 112.008 1231.09C113.531 1231.09 114.734 1231.66 115.617 1232.81C116.508 1233.96 116.953 1235.55 116.953 1237.6V1237.8ZM114.785 1237.55C114.785 1236.12 114.48 1235 113.871 1234.17C113.262 1233.34 112.426 1232.93 111.363 1232.93C110.051 1232.93 109.066 1233.51 108.41 1234.67V1240.73C109.059 1241.89 110.051 1242.46 111.387 1242.46C112.426 1242.46 113.25 1242.05 113.859 1241.23C114.477 1240.41 114.785 1239.18 114.785 1237.55ZM119.145 1237.54C119.145 1236.3 119.387 1235.18 119.871 1234.19C120.363 1233.2 121.043 1232.43 121.91 1231.89C122.785 1231.36 123.781 1231.09 124.898 1231.09C126.625 1231.09 128.02 1231.68 129.082 1232.88C130.152 1234.07 130.688 1235.66 130.688 1237.65V1237.8C130.688 1239.04 130.449 1240.14 129.973 1241.13C129.504 1242.11 128.828 1242.87 127.945 1243.41C127.07 1243.96 126.062 1244.23 124.922 1244.23C123.203 1244.23 121.809 1243.64 120.738 1242.44C119.676 1241.25 119.145 1239.66 119.145 1237.7V1237.54ZM121.324 1237.8C121.324 1239.21 121.648 1240.34 122.297 1241.19C122.953 1242.04 123.828 1242.46 124.922 1242.46C126.023 1242.46 126.898 1242.04 127.547 1241.18C128.195 1240.31 128.52 1239.1 128.52 1237.54C128.52 1236.15 128.188 1235.03 127.523 1234.17C126.867 1233.3 125.992 1232.87 124.898 1232.87C123.828 1232.87 122.965 1233.29 122.309 1234.14C121.652 1235 121.324 1236.21 121.324 1237.8ZM140.789 1240.64C140.789 1240.05 140.566 1239.6 140.121 1239.28C139.684 1238.95 138.914 1238.67 137.812 1238.43C136.719 1238.2 135.848 1237.92 135.199 1237.59C134.559 1237.26 134.082 1236.87 133.77 1236.42C133.465 1235.96 133.312 1235.43 133.312 1234.8C133.312 1233.76 133.75 1232.88 134.625 1232.16C135.508 1231.45 136.633 1231.09 138 1231.09C139.438 1231.09 140.602 1231.46 141.492 1232.2C142.391 1232.94 142.84 1233.89 142.84 1235.05H140.66C140.66 1234.45 140.406 1233.94 139.898 1233.51C139.398 1233.08 138.766 1232.87 138 1232.87C137.211 1232.87 136.594 1233.04 136.148 1233.38C135.703 1233.73 135.48 1234.18 135.48 1234.73C135.48 1235.25 135.688 1235.65 136.102 1235.91C136.516 1236.18 137.262 1236.43 138.34 1236.68C139.426 1236.92 140.305 1237.21 140.977 1237.54C141.648 1237.88 142.145 1238.29 142.465 1238.76C142.793 1239.23 142.957 1239.8 142.957 1240.48C142.957 1241.62 142.504 1242.53 141.598 1243.21C140.691 1243.89 139.516 1244.23 138.07 1244.23C137.055 1244.23 136.156 1244.05 135.375 1243.7C134.594 1243.34 133.98 1242.84 133.535 1242.2C133.098 1241.55 132.879 1240.85 132.879 1240.1H135.047C135.086 1240.82 135.375 1241.4 135.914 1241.83C136.461 1242.25 137.18 1242.46 138.07 1242.46C138.891 1242.46 139.547 1242.3 140.039 1241.97C140.539 1241.64 140.789 1241.19 140.789 1240.64ZM148.137 1244H145.969V1231.32H148.137V1244ZM145.793 1227.96C145.793 1227.61 145.898 1227.31 146.109 1227.07C146.328 1226.82 146.648 1226.7 147.07 1226.7C147.492 1226.7 147.812 1226.82 148.031 1227.07C148.25 1227.31 148.359 1227.61 148.359 1227.96C148.359 1228.31 148.25 1228.6 148.031 1228.84C147.812 1229.07 147.492 1229.19 147.07 1229.19C146.648 1229.19 146.328 1229.07 146.109 1228.84C145.898 1228.6 145.793 1228.31 145.793 1227.96ZM154.559 1228.25V1231.32H156.926V1233H154.559V1240.86C154.559 1241.37 154.664 1241.75 154.875 1242.01C155.086 1242.26 155.445 1242.38 155.953 1242.38C156.203 1242.38 156.547 1242.34 156.984 1242.24V1244C156.414 1244.16 155.859 1244.23 155.32 1244.23C154.352 1244.23 153.621 1243.94 153.129 1243.36C152.637 1242.77 152.391 1241.94 152.391 1240.86V1233H150.082V1231.32H152.391V1228.25H154.559ZM161.824 1244H159.656V1231.32H161.824V1244ZM159.48 1227.96C159.48 1227.61 159.586 1227.31 159.797 1227.07C160.016 1226.82 160.336 1226.7 160.758 1226.7C161.18 1226.7 161.5 1226.82 161.719 1227.07C161.938 1227.31 162.047 1227.61 162.047 1227.96C162.047 1228.31 161.938 1228.6 161.719 1228.84C161.5 1229.07 161.18 1229.19 160.758 1229.19C160.336 1229.19 160.016 1229.07 159.797 1228.84C159.586 1228.6 159.48 1228.31 159.48 1227.96ZM164.73 1237.54C164.73 1236.3 164.973 1235.18 165.457 1234.19C165.949 1233.2 166.629 1232.43 167.496 1231.89C168.371 1231.36 169.367 1231.09 170.484 1231.09C172.211 1231.09 173.605 1231.68 174.668 1232.88C175.738 1234.07 176.273 1235.66 176.273 1237.65V1237.8C176.273 1239.04 176.035 1240.14 175.559 1241.13C175.09 1242.11 174.414 1242.87 173.531 1243.41C172.656 1243.96 171.648 1244.23 170.508 1244.23C168.789 1244.23 167.395 1243.64 166.324 1242.44C165.262 1241.25 164.73 1239.66 164.73 1237.7V1237.54ZM166.91 1237.8C166.91 1239.21 167.234 1240.34 167.883 1241.19C168.539 1242.04 169.414 1242.46 170.508 1242.46C171.609 1242.46 172.484 1242.04 173.133 1241.18C173.781 1240.31 174.105 1239.1 174.105 1237.54C174.105 1236.15 173.773 1235.03 173.109 1234.17C172.453 1233.3 171.578 1232.87 170.484 1232.87C169.414 1232.87 168.551 1233.29 167.895 1234.14C167.238 1235 166.91 1236.21 166.91 1237.8ZM181.043 1231.32L181.113 1232.91C182.082 1231.7 183.348 1231.09 184.91 1231.09C187.59 1231.09 188.941 1232.6 188.965 1235.62V1244H186.797V1235.61C186.789 1234.7 186.578 1234.02 186.164 1233.58C185.758 1233.14 185.121 1232.93 184.254 1232.93C183.551 1232.93 182.934 1233.11 182.402 1233.49C181.871 1233.86 181.457 1234.36 181.16 1234.96V1244H178.992V1231.32H181.043Z" fill="white"/>
<g clip-path="url(#clip18_1_1690)">
<g opacity="0.1">
<path opacity="0.1" d="M211.71 1234.04C211.712 1234.36 211.65 1234.68 211.528 1234.98C211.406 1235.27 211.226 1235.54 211 1235.76L207.08 1239.68C206.621 1240.14 206.001 1240.4 205.355 1240.4C204.709 1240.4 204.089 1240.14 203.63 1239.68L199.72 1235.76C199.492 1235.54 199.311 1235.27 199.188 1234.98C199.064 1234.68 199 1234.37 199 1234.04C199.002 1233.4 199.257 1232.78 199.71 1232.31C200 1232.07 200.43 1231.6 205.36 1231.6C210.29 1231.6 210.75 1232.06 211 1232.31C211.226 1232.54 211.405 1232.81 211.527 1233.11C211.649 1233.41 211.711 1233.72 211.71 1234.04Z" fill="#231F20"/>
</g>
<path d="M205.36 1239.39C204.984 1239.39 204.625 1239.24 204.36 1238.97L200.42 1235.05C200.161 1234.79 200.016 1234.43 200.016 1234.05C200.016 1233.68 200.161 1233.32 200.42 1233.05C200.98 1232.49 209.73 1232.49 210.29 1233.05C210.549 1233.32 210.694 1233.68 210.694 1234.05C210.694 1234.43 210.549 1234.79 210.29 1235.05L206.37 1238.97C206.102 1239.24 205.739 1239.39 205.36 1239.39Z" fill="white"/>
</g>
<rect x="0.5" y="1280.5" width="141.71" height="43" rx="3.5" fill="#4C97FF"/>
<rect x="0.5" y="1280.5" width="141.71" height="43" rx="3.5" stroke="#3373CC"/>
<path d="M20.043 1310H17.875V1292H20.043V1310ZM28.7852 1310.23C27.0664 1310.23 25.668 1309.67 24.5898 1308.55C23.5117 1307.41 22.9727 1305.9 22.9727 1304.01V1303.61C22.9727 1302.36 23.2109 1301.23 23.6875 1300.25C24.1719 1299.26 24.8438 1298.48 25.7031 1297.93C26.5703 1297.37 27.5078 1297.09 28.5156 1297.09C30.1641 1297.09 31.4453 1297.63 32.3594 1298.71C33.2734 1299.8 33.7305 1301.36 33.7305 1303.38V1304.28H25.1406C25.1719 1305.53 25.5352 1306.54 26.2305 1307.32C26.9336 1308.08 27.8242 1308.46 28.9023 1308.46C29.668 1308.46 30.3164 1308.31 30.8477 1308C31.3789 1307.68 31.8438 1307.27 32.2422 1306.75L33.5664 1307.79C32.5039 1309.42 30.9102 1310.23 28.7852 1310.23ZM28.5156 1298.87C27.6406 1298.87 26.9062 1299.19 26.3125 1299.83C25.7188 1300.46 25.3516 1301.35 25.2109 1302.5H31.5625V1302.34C31.5 1301.23 31.2031 1300.38 30.6719 1299.78C30.1406 1299.17 29.4219 1298.87 28.5156 1298.87ZM37.3164 1310V1299H35.3125V1297.32H37.3164V1296.02C37.3164 1294.66 37.6797 1293.61 38.4062 1292.87C39.1328 1292.12 40.1602 1291.75 41.4883 1291.75C41.9883 1291.75 42.4844 1291.82 42.9766 1291.95L42.8594 1293.71C42.4922 1293.64 42.1016 1293.61 41.6875 1293.61C40.9844 1293.61 40.4414 1293.81 40.0586 1294.23C39.6758 1294.63 39.4844 1295.22 39.4844 1295.98V1297.32H42.1914V1299H39.4844V1310H37.3164ZM47.5352 1294.25V1297.32H49.9023V1299H47.5352V1306.86C47.5352 1307.37 47.6406 1307.75 47.8516 1308.01C48.0625 1308.26 48.4219 1308.38 48.9297 1308.38C49.1797 1308.38 49.5234 1308.34 49.9609 1308.24V1310C49.3906 1310.16 48.8359 1310.23 48.2969 1310.23C47.3281 1310.23 46.5977 1309.94 46.1055 1309.36C45.6133 1308.77 45.3672 1307.94 45.3672 1306.86V1299H43.0586V1297.32H45.3672V1294.25H47.5352ZM56.957 1303.64H51.2383V1301.87H56.957V1303.64ZM65.207 1299.27C64.8789 1299.21 64.5234 1299.18 64.1406 1299.18C62.7188 1299.18 61.7539 1299.79 61.2461 1301V1310H59.0781V1297.32H61.1875L61.2227 1298.79C61.9336 1297.65 62.9414 1297.09 64.2461 1297.09C64.668 1297.09 64.9883 1297.14 65.207 1297.25V1299.27ZM69.5664 1310H67.3984V1297.32H69.5664V1310ZM67.2227 1293.96C67.2227 1293.61 67.3281 1293.31 67.5391 1293.07C67.7578 1292.82 68.0781 1292.7 68.5 1292.7C68.9219 1292.7 69.2422 1292.82 69.4609 1293.07C69.6797 1293.31 69.7891 1293.61 69.7891 1293.96C69.7891 1294.31 69.6797 1294.6 69.4609 1294.84C69.2422 1295.07 68.9219 1295.19 68.5 1295.19C68.0781 1295.19 67.7578 1295.07 67.5391 1294.84C67.3281 1294.6 67.2227 1294.31 67.2227 1293.96ZM72.5312 1303.55C72.5312 1301.58 72.9883 1300.01 73.9023 1298.84C74.8164 1297.67 76.0273 1297.09 77.5352 1297.09C79.082 1297.09 80.2891 1297.63 81.1562 1298.73L81.2617 1297.32H83.2422V1309.7C83.2422 1311.34 82.7539 1312.63 81.7773 1313.57C80.8086 1314.52 79.5039 1314.99 77.8633 1314.99C76.9492 1314.99 76.0547 1314.8 75.1797 1314.41C74.3047 1314.02 73.6367 1313.48 73.1758 1312.8L74.3008 1311.5C75.2305 1312.65 76.3672 1313.22 77.7109 1313.22C78.7656 1313.22 79.5859 1312.93 80.1719 1312.33C80.7656 1311.74 81.0625 1310.9 81.0625 1309.82V1308.73C80.1953 1309.73 79.0117 1310.23 77.5117 1310.23C76.0273 1310.23 74.8242 1309.64 73.9023 1308.44C72.9883 1307.25 72.5312 1305.62 72.5312 1303.55ZM74.7109 1303.8C74.7109 1305.23 75.0039 1306.36 75.5898 1307.18C76.1758 1307.99 76.9961 1308.39 78.0508 1308.39C79.418 1308.39 80.4219 1307.77 81.0625 1306.53V1300.74C80.3984 1299.53 79.4023 1298.93 78.0742 1298.93C77.0195 1298.93 76.1953 1299.34 75.6016 1300.16C75.0078 1300.98 74.7109 1302.19 74.7109 1303.8ZM88.6914 1298.86C89.6523 1297.68 90.9023 1297.09 92.4414 1297.09C95.1211 1297.09 96.4727 1298.6 96.4961 1301.62V1310H94.3281V1301.61C94.3203 1300.7 94.1094 1300.02 93.6953 1299.58C93.2891 1299.14 92.6523 1298.93 91.7852 1298.93C91.082 1298.93 90.4648 1299.11 89.9336 1299.49C89.4023 1299.86 88.9883 1300.36 88.6914 1300.96V1310H86.5234V1292H88.6914V1298.86ZM102.684 1294.25V1297.32H105.051V1299H102.684V1306.86C102.684 1307.37 102.789 1307.75 103 1308.01C103.211 1308.26 103.57 1308.38 104.078 1308.38C104.328 1308.38 104.672 1308.34 105.109 1308.24V1310C104.539 1310.16 103.984 1310.23 103.445 1310.23C102.477 1310.23 101.746 1309.94 101.254 1309.36C100.762 1308.77 100.516 1307.94 100.516 1306.86V1299H98.207V1297.32H100.516V1294.25H102.684Z" fill="white"/>
<g clip-path="url(#clip19_1_1690)">
<g opacity="0.1">
<path opacity="0.1" d="M126.71 1300.04C126.712 1300.36 126.65 1300.68 126.528 1300.98C126.406 1301.27 126.226 1301.54 126 1301.76L122.08 1305.68C121.621 1306.14 121.001 1306.4 120.355 1306.4C119.709 1306.4 119.089 1306.14 118.63 1305.68L114.72 1301.76C114.492 1301.54 114.311 1301.27 114.188 1300.98C114.064 1300.68 114 1300.37 114 1300.04C114.002 1299.4 114.257 1298.78 114.71 1298.31C115 1298.07 115.43 1297.6 120.36 1297.6C125.29 1297.6 125.75 1298.06 126 1298.31C126.226 1298.54 126.405 1298.81 126.527 1299.11C126.649 1299.41 126.711 1299.72 126.71 1300.04Z" fill="#FF0040"/>
</g>
<path d="M120.36 1305.39C119.984 1305.39 119.625 1305.24 119.36 1304.97L115.42 1301.05C115.161 1300.79 115.016 1300.43 115.016 1300.05C115.016 1299.68 115.161 1299.32 115.42 1299.05C115.98 1298.49 124.73 1298.49 125.29 1299.05C125.549 1299.32 125.694 1299.68 125.694 1300.05C125.694 1300.43 125.549 1300.79 125.29 1301.05L121.37 1304.97C121.102 1305.24 120.739 1305.39 120.36 1305.39Z" fill="white"/>
</g>
<rect x="0.5" y="1346.5" width="135" height="43" rx="19.5" fill="#4C97FF"/>
<rect x="0.5" y="1346.5" width="135" height="43" rx="19.5" stroke="#3373CC"/>
<path d="M21.9688 1367.95L24.7812 1363.32H27.3125L23.1641 1369.59L27.4414 1376H24.9336L22.0039 1371.25L19.0742 1376H16.5547L20.832 1369.59L16.6836 1363.32H19.1914L21.9688 1367.95ZM46.2852 1369.8C46.2852 1371.73 45.8438 1373.29 44.9609 1374.46C44.0781 1375.64 42.8828 1376.23 41.375 1376.23C39.8359 1376.23 38.625 1375.75 37.7422 1374.77V1380.88H35.5742V1363.32H37.5547L37.6602 1364.73C38.543 1363.63 39.7695 1363.09 41.3398 1363.09C42.8633 1363.09 44.0664 1363.66 44.9492 1364.81C45.8398 1365.96 46.2852 1367.55 46.2852 1369.6V1369.8ZM44.1172 1369.55C44.1172 1368.12 43.8125 1367 43.2031 1366.17C42.5938 1365.34 41.7578 1364.93 40.6953 1364.93C39.3828 1364.93 38.3984 1365.51 37.7422 1366.67V1372.73C38.3906 1373.89 39.3828 1374.46 40.7188 1374.46C41.7578 1374.46 42.582 1374.05 43.1914 1373.23C43.8086 1372.41 44.1172 1371.18 44.1172 1369.55ZM48.4766 1369.54C48.4766 1368.3 48.7188 1367.18 49.2031 1366.19C49.6953 1365.2 50.375 1364.43 51.2422 1363.89C52.1172 1363.36 53.1133 1363.09 54.2305 1363.09C55.957 1363.09 57.3516 1363.68 58.4141 1364.88C59.4844 1366.07 60.0195 1367.66 60.0195 1369.65V1369.8C60.0195 1371.04 59.7812 1372.14 59.3047 1373.13C58.8359 1374.11 58.1602 1374.87 57.2773 1375.41C56.4023 1375.96 55.3945 1376.23 54.2539 1376.23C52.5352 1376.23 51.1406 1375.64 50.0703 1374.44C49.0078 1373.25 48.4766 1371.66 48.4766 1369.7V1369.54ZM50.6562 1369.8C50.6562 1371.21 50.9805 1372.34 51.6289 1373.19C52.2852 1374.04 53.1602 1374.46 54.2539 1374.46C55.3555 1374.46 56.2305 1374.04 56.8789 1373.18C57.5273 1372.31 57.8516 1371.1 57.8516 1369.54C57.8516 1368.15 57.5195 1367.03 56.8555 1366.17C56.1992 1365.3 55.3242 1364.87 54.2305 1364.87C53.1602 1364.87 52.2969 1365.29 51.6406 1366.14C50.9844 1367 50.6562 1368.21 50.6562 1369.8ZM70.1211 1372.64C70.1211 1372.05 69.8984 1371.6 69.4531 1371.28C69.0156 1370.95 68.2461 1370.67 67.1445 1370.43C66.0508 1370.2 65.1797 1369.92 64.5312 1369.59C63.8906 1369.26 63.4141 1368.87 63.1016 1368.42C62.7969 1367.96 62.6445 1367.43 62.6445 1366.8C62.6445 1365.76 63.082 1364.88 63.957 1364.16C64.8398 1363.45 65.9648 1363.09 67.332 1363.09C68.7695 1363.09 69.9336 1363.46 70.8242 1364.2C71.7227 1364.94 72.1719 1365.89 72.1719 1367.05H69.9922C69.9922 1366.45 69.7383 1365.94 69.2305 1365.51C68.7305 1365.08 68.0977 1364.87 67.332 1364.87C66.543 1364.87 65.9258 1365.04 65.4805 1365.38C65.0352 1365.73 64.8125 1366.18 64.8125 1366.73C64.8125 1367.25 65.0195 1367.65 65.4336 1367.91C65.8477 1368.18 66.5938 1368.43 67.6719 1368.68C68.7578 1368.92 69.6367 1369.21 70.3086 1369.54C70.9805 1369.88 71.4766 1370.29 71.7969 1370.76C72.125 1371.23 72.2891 1371.8 72.2891 1372.48C72.2891 1373.62 71.8359 1374.53 70.9297 1375.21C70.0234 1375.89 68.8477 1376.23 67.4023 1376.23C66.3867 1376.23 65.4883 1376.05 64.707 1375.7C63.9258 1375.34 63.3125 1374.84 62.8672 1374.2C62.4297 1373.55 62.2109 1372.85 62.2109 1372.1H64.3789C64.418 1372.82 64.707 1373.4 65.2461 1373.83C65.793 1374.25 66.5117 1374.46 67.4023 1374.46C68.2227 1374.46 68.8789 1374.3 69.3711 1373.97C69.8711 1373.64 70.1211 1373.19 70.1211 1372.64ZM77.4688 1376H75.3008V1363.32H77.4688V1376ZM75.125 1359.96C75.125 1359.61 75.2305 1359.31 75.4414 1359.07C75.6602 1358.82 75.9805 1358.7 76.4023 1358.7C76.8242 1358.7 77.1445 1358.82 77.3633 1359.07C77.582 1359.31 77.6914 1359.61 77.6914 1359.96C77.6914 1360.31 77.582 1360.6 77.3633 1360.84C77.1445 1361.07 76.8242 1361.19 76.4023 1361.19C75.9805 1361.19 75.6602 1361.07 75.4414 1360.84C75.2305 1360.6 75.125 1360.31 75.125 1359.96ZM83.8906 1360.25V1363.32H86.2578V1365H83.8906V1372.86C83.8906 1373.37 83.9961 1373.75 84.207 1374.01C84.418 1374.26 84.7773 1374.38 85.2852 1374.38C85.5352 1374.38 85.8789 1374.34 86.3164 1374.24V1376C85.7461 1376.16 85.1914 1376.23 84.6523 1376.23C83.6836 1376.23 82.9531 1375.94 82.4609 1375.36C81.9688 1374.77 81.7227 1373.94 81.7227 1372.86V1365H79.4141V1363.32H81.7227V1360.25H83.8906ZM91.1562 1376H88.9883V1363.32H91.1562V1376ZM88.8125 1359.96C88.8125 1359.61 88.918 1359.31 89.1289 1359.07C89.3477 1358.82 89.668 1358.7 90.0898 1358.7C90.5117 1358.7 90.832 1358.82 91.0508 1359.07C91.2695 1359.31 91.3789 1359.61 91.3789 1359.96C91.3789 1360.31 91.2695 1360.6 91.0508 1360.84C90.832 1361.07 90.5117 1361.19 90.0898 1361.19C89.668 1361.19 89.3477 1361.07 89.1289 1360.84C88.918 1360.6 88.8125 1360.31 88.8125 1359.96ZM94.0625 1369.54C94.0625 1368.3 94.3047 1367.18 94.7891 1366.19C95.2812 1365.2 95.9609 1364.43 96.8281 1363.89C97.7031 1363.36 98.6992 1363.09 99.8164 1363.09C101.543 1363.09 102.938 1363.68 104 1364.88C105.07 1366.07 105.605 1367.66 105.605 1369.65V1369.8C105.605 1371.04 105.367 1372.14 104.891 1373.13C104.422 1374.11 103.746 1374.87 102.863 1375.41C101.988 1375.96 100.98 1376.23 99.8398 1376.23C98.1211 1376.23 96.7266 1375.64 95.6562 1374.44C94.5938 1373.25 94.0625 1371.66 94.0625 1369.7V1369.54ZM96.2422 1369.8C96.2422 1371.21 96.5664 1372.34 97.2148 1373.19C97.8711 1374.04 98.7461 1374.46 99.8398 1374.46C100.941 1374.46 101.816 1374.04 102.465 1373.18C103.113 1372.31 103.438 1371.1 103.438 1369.54C103.438 1368.15 103.105 1367.03 102.441 1366.17C101.785 1365.3 100.91 1364.87 99.8164 1364.87C98.7461 1364.87 97.8828 1365.29 97.2266 1366.14C96.5703 1367 96.2422 1368.21 96.2422 1369.8ZM110.375 1363.32L110.445 1364.91C111.414 1363.7 112.68 1363.09 114.242 1363.09C116.922 1363.09 118.273 1364.6 118.297 1367.62V1376H116.129V1367.61C116.121 1366.7 115.91 1366.02 115.496 1365.58C115.09 1365.14 114.453 1364.93 113.586 1364.93C112.883 1364.93 112.266 1365.11 111.734 1365.49C111.203 1365.86 110.789 1366.36 110.492 1366.96V1376H108.324V1363.32H110.375Z" fill="white"/>
<rect x="0.5" y="1412.5" width="47" height="47" rx="19.5" fill="#4C97FF"/>
<rect x="0.5" y="1412.5" width="47" height="47" rx="19.5" stroke="#3373CC"/>
<path d="M0 1506L22 1482V1530L0 1506Z" fill="#CF8B17"/>
<rect x="22" y="1482" width="24" height="48" fill="#CF8B17"/>
<path d="M68 1506L46 1482V1530L68 1506Z" fill="#CF8B17"/>
<path d="M0 1576L22 1552V1600L0 1576Z" fill="#2E8EB8"/>
<rect x="22" y="1552" width="24" height="48" fill="#2E8EB8"/>
<path d="M68 1576L46 1552V1600L68 1576Z" fill="#2E8EB8"/>
<path d="M1 1576L22.5 1552.75V1599.25L1 1576Z" fill="#5CB1D6"/>
<path d="M67 1576L45.5 1552.75V1599.25L67 1576Z" fill="#5CB1D6"/>
<rect x="22.5" y="1552.75" width="23" height="46.5" fill="#5CB1D6"/>
<path d="M22.6801 1634.2C22.531 1634.4 22.3389 1634.55 22.1186 1634.66C21.8984 1634.77 21.6559 1634.83 21.4101 1634.83H13.7201C13.4281 1634.81 13.1459 1634.72 12.9047 1634.55C12.6634 1634.39 12.4723 1634.16 12.3524 1633.89C12.2325 1633.63 12.1884 1633.33 12.2251 1633.04C12.2617 1632.75 12.3776 1632.48 12.5601 1632.25L13.6801 1630.84C12.7533 1630.23 11.6442 1629.96 10.5401 1630.07C9.81643 1630.16 9.12827 1630.44 8.54007 1630.87C7.95005 1631.32 7.48807 1631.92 7.20007 1632.6C6.91402 1633.36 6.81377 1634.17 6.90773 1634.98C7.0017 1635.78 7.28713 1636.55 7.74007 1637.22C8.20844 1637.94 8.8365 1638.54 9.57537 1638.98C10.3142 1639.42 11.144 1639.68 12.0001 1639.74C12.2969 1639.75 12.5887 1639.82 12.8588 1639.94C13.129 1640.07 13.3723 1640.24 13.5747 1640.46C13.7771 1640.68 13.9348 1640.93 14.0386 1641.21C14.1425 1641.49 14.1906 1641.78 14.1801 1642.08C14.1696 1642.38 14.1007 1642.67 13.9774 1642.94C13.8541 1643.21 13.6788 1643.45 13.4616 1643.65C13.2443 1643.86 12.9892 1644.01 12.711 1644.12C12.4328 1644.22 12.1369 1644.27 11.8401 1644.26C10.2522 1644.23 8.69392 1643.82 7.28822 1643.08C5.88252 1642.34 4.66786 1641.29 3.74007 1640C2.77092 1638.7 2.12966 1637.18 1.87035 1635.57C1.61104 1633.97 1.74127 1632.32 2.25007 1630.78C2.8142 1629.18 3.79015 1627.75 5.08007 1626.64C6.3963 1625.54 7.97421 1624.81 9.66007 1624.5C12.3536 1624.05 15.1169 1624.65 17.3801 1626.18L18.4601 1624.83C18.6075 1624.64 18.7959 1624.49 19.0107 1624.39C19.2256 1624.28 19.4614 1624.23 19.7001 1624.23C20.0545 1624.23 20.3981 1624.35 20.6768 1624.57C20.9556 1624.79 21.1537 1625.1 21.2401 1625.44L22.9401 1632.81C23.0085 1633.05 23.0206 1633.29 22.9754 1633.54C22.9303 1633.78 22.8291 1634 22.6801 1634.2Z" fill="#3D79CC"/>
<path d="M21.3801 1633.83H13.7701C13.6537 1633.83 13.5397 1633.8 13.4422 1633.73C13.3448 1633.67 13.2682 1633.58 13.2223 1633.47C13.1763 1633.37 13.163 1633.25 13.184 1633.13C13.2049 1633.02 13.2592 1632.91 13.3401 1632.83L15.0901 1630.64C14.4682 1630.05 13.7257 1629.61 12.9141 1629.33C12.1025 1629.06 11.2412 1628.97 10.3901 1629.06C9.48293 1629.17 8.62211 1629.52 7.89864 1630.08C7.17517 1630.64 6.61593 1631.38 6.28006 1632.23C5.94175 1633.14 5.83051 1634.12 5.95595 1635.09C6.08138 1636.05 6.43972 1636.97 7.00006 1637.77C7.55171 1638.61 8.29013 1639.31 9.15755 1639.82C10.025 1640.32 10.9979 1640.62 12.0001 1640.69C12.3475 1640.7 12.6765 1640.85 12.9147 1641.1C13.1528 1641.36 13.2807 1641.69 13.2701 1642.04C13.2595 1642.39 13.1113 1642.72 12.8581 1642.95C12.6049 1643.19 12.2675 1643.32 11.9201 1643.31C10.4831 1643.28 9.07154 1642.93 7.79628 1642.26C6.52101 1641.6 5.41671 1640.65 4.57006 1639.49C3.67887 1638.31 3.08609 1636.93 2.84231 1635.48C2.59852 1634.02 2.71097 1632.52 3.17006 1631.12C3.66723 1629.67 4.54463 1628.39 5.71006 1627.4C6.88771 1626.41 8.30524 1625.75 9.82006 1625.48C11.1848 1625.25 12.5822 1625.32 13.9188 1625.68C15.2554 1626.03 16.5003 1626.67 17.5701 1627.55L19.2401 1625.45C19.3092 1625.37 19.3974 1625.32 19.4958 1625.28C19.5942 1625.25 19.6993 1625.25 19.8007 1625.27C19.902 1625.29 19.996 1625.34 20.0731 1625.4C20.1502 1625.47 20.2078 1625.56 20.2401 1625.66L22.0001 1633.08C22.0264 1633.17 22.03 1633.27 22.0104 1633.36C21.9908 1633.46 21.9486 1633.54 21.8876 1633.62C21.8265 1633.69 21.7484 1633.75 21.66 1633.79C21.5716 1633.82 21.4755 1633.84 21.3801 1633.83Z" fill="white"/>
<g clip-path="url(#clip20_1_1690)">
<g opacity="0.1">
<path opacity="0.1" d="M12.71 1670.44C12.7116 1670.76 12.6496 1671.08 12.5277 1671.37C12.4058 1671.67 12.2264 1671.93 12 1672.16L8.08 1676.08C7.62115 1676.53 7.00116 1676.79 6.355 1676.79C5.70884 1676.79 5.08885 1676.53 4.63 1676.08L0.72 1672.16C0.492209 1671.94 0.311281 1671.67 0.187692 1671.37C0.0641026 1671.08 0.000307515 1670.76 0 1670.44C0.00185441 1669.79 0.256655 1669.17 0.71 1668.71C1 1668.47 1.43 1668 6.36 1668C11.29 1668 11.75 1668.46 12 1668.71C12.2263 1668.94 12.4055 1669.21 12.5273 1669.5C12.6491 1669.8 12.7112 1670.12 12.71 1670.44Z" fill="#231F20"/>
</g>
<path d="M6.35997 1675.79C5.98441 1675.79 5.62521 1675.64 5.35997 1675.37L1.41997 1671.45C1.1609 1671.18 1.01611 1670.82 1.01611 1670.45C1.01611 1670.08 1.1609 1669.72 1.41997 1669.45C1.97997 1668.89 10.73 1668.89 11.29 1669.45C11.549 1669.72 11.6938 1670.08 11.6938 1670.45C11.6938 1670.82 11.549 1671.18 11.29 1671.45L7.36997 1675.37C7.10226 1675.64 6.73899 1675.79 6.35997 1675.79Z" fill="white"/>
</g>
<path d="M20.8 1702.49C20.4 1702.29 19.9 1702.39 19.6 1702.69C17.6 1704.29 14.8 1704.29 12.8 1702.69C10.5 1700.79 7.2 1700.39 4.5 1701.69V1701.29C4.5 1700.69 4 1700.29 3.5 1700.29C3 1700.29 2.5 1700.69 2.5 1701.29V1720.09C2.5 1720.59 3 1721.09 3.5 1721.09H3.6C4.1 1721.09 4.6 1720.59 4.6 1720.09V1713.69C5.6 1712.99 6.7 1712.49 8 1712.39C9.2 1712.39 10.4 1712.79 11.4 1713.59C14.3 1715.89 18.4 1715.89 21.2 1713.59C21.5 1713.39 21.6 1713.09 21.6 1712.69V1703.49C21.6 1702.99 21.3 1702.59 20.8 1702.49ZM20.5 1712.69C18 1714.79 14.4 1714.79 11.9 1712.79C10.8 1711.89 9.4 1711.39 7.9 1711.39C6.7 1711.49 5.6 1711.89 4.5 1712.49V1702.79C7 1701.39 10 1701.69 12.2 1703.39C14.6 1705.29 17.9 1705.29 20.3 1703.39C20.4 1703.39 20.4 1703.39 20.5 1703.39L20.6 1703.49L20.5 1712.69Z" fill="#45993D"/>
<path d="M20.6 1703.59L20.5 1712.69V1712.79C18 1714.79 14.4 1714.79 11.9 1712.79C10.8 1711.89 9.4 1711.39 7.9 1711.39C6.7 1711.49 5.6 1711.89 4.5 1712.49V1702.79C7 1701.39 10 1701.69 12.2 1703.39C14.6 1705.29 17.9 1705.29 20.3 1703.39C20.4 1703.39 20.4 1703.39 20.5 1703.39C20.5 1703.49 20.6 1703.49 20.6 1703.59Z" fill="#4CBF56"/>
<path d="M23.2999 1755.79C23 1756.39 22.4 1756.79 21.7999 1756.79H20.2C20.1 1758.09 19.7 1759.29 19.1 1760.39C18.2 1762.09 16.8 1763.59 15 1764.49C13.3 1765.39 11.4 1765.69 9.49995 1765.39C7.69995 1765.09 5.99995 1764.29 4.59995 1763.09C3.89995 1762.39 3.89995 1761.19 4.59995 1760.49C5.19995 1759.89 6.19995 1759.79 6.89995 1760.29H6.99995C7.89995 1760.89 8.89995 1761.19 9.89995 1761.19C10.9 1761.19 11.8 1760.89 12.6 1760.29C13.7 1759.49 14.4 1758.19 14.4 1756.79H12.9C12 1756.79 11.2 1756.09 11.2 1755.09C11.2 1754.69 11.4 1754.19 11.7 1753.89L16.1 1749.49C16.8 1748.89 17.8 1748.89 18.5 1749.49L23 1753.99C23.5 1754.49 23.5999 1755.19 23.2999 1755.79Z" fill="#CF8B17"/>
<path d="M21.8001 1755.79H19.2001C19.2001 1757.29 18.9001 1758.69 18.2001 1759.99C17.4001 1761.59 16.1001 1762.79 14.5001 1763.59C13.0001 1764.39 11.2001 1764.69 9.60007 1764.39C8.00007 1764.19 6.40007 1763.39 5.20007 1762.29C4.80007 1761.99 4.80007 1761.39 5.10007 1761.09C5.40007 1760.69 6.00007 1760.69 6.30007 1760.99C7.30007 1761.69 8.50007 1762.09 9.70007 1762.09C10.9001 1762.09 12.0001 1761.79 13.0001 1761.09C13.9001 1760.49 14.6001 1759.59 15.0001 1758.49C15.3001 1757.59 15.4001 1756.69 15.2001 1755.69H12.8001C12.4001 1755.69 12.1001 1755.39 12.1001 1754.99C12.1001 1754.79 12.2001 1754.69 12.3001 1754.59L16.7001 1750.19C17.0001 1749.89 17.4001 1749.89 17.6001 1750.19L22.0001 1754.59C22.3001 1754.89 22.4001 1755.19 22.3001 1755.49C22.2001 1755.79 22.0001 1755.79 21.8001 1755.79Z" fill="white"/>
<defs>
<clipPath id="clip0_1_1690">
<rect width="25" height="68" fill="white" transform="translate(87)"/>
</clipPath>
<clipPath id="clip1_1_1690">
<rect width="25" height="68" fill="white" transform="translate(87 90)"/>
</clipPath>
<clipPath id="clip2_1_1690">
<rect width="63" height="68" fill="white" transform="translate(149 204)"/>
</clipPath>
<clipPath id="clip3_1_1690">
<rect width="241" height="85" fill="white" transform="translate(0 294)"/>
</clipPath>
<clipPath id="clip4_1_1690">
<rect width="117" height="68" fill="white" transform="translate(124 294)"/>
</clipPath>
<clipPath id="clip5_1_1690">
<rect width="125" height="81" fill="white" transform="translate(0 401)"/>
</clipPath>
<clipPath id="clip6_1_1690">
<rect width="117" height="52" fill="white" transform="translate(124 418)"/>
</clipPath>
<clipPath id="clip7_1_1690">
<rect width="241" height="69" fill="white" transform="translate(0 492)"/>
</clipPath>
<clipPath id="clip8_1_1690">
<rect width="117" height="52" fill="white" transform="translate(124 509)"/>
</clipPath>
<clipPath id="clip9_1_1690">
<rect width="241" height="85" fill="white" transform="translate(0 583)"/>
</clipPath>
<clipPath id="clip10_1_1690">
<rect width="117" height="68" fill="white" transform="translate(124 583)"/>
</clipPath>
<clipPath id="clip11_1_1690">
<rect width="241" height="102" fill="white" transform="translate(0 698)"/>
</clipPath>
<clipPath id="clip12_1_1690">
<rect width="117" height="52" fill="white" transform="translate(124 715)"/>
</clipPath>
<clipPath id="clip13_1_1690">
<rect width="241" height="114" fill="white" transform="translate(0 822)"/>
</clipPath>
<clipPath id="clip14_1_1690">
<rect width="125" height="81" fill="white" transform="translate(0 854.02)"/>
</clipPath>
<clipPath id="clip15_1_1690">
<rect width="117" height="52" fill="white" transform="translate(124 871.02)"/>
</clipPath>
<clipPath id="clip16_1_1690">
<rect width="241" height="102" fill="white" transform="translate(0 958)"/>
</clipPath>
<clipPath id="clip17_1_1690">
<rect width="117" height="52" fill="white" transform="translate(124 975)"/>
</clipPath>
<clipPath id="clip18_1_1690">
<rect width="12.71" height="8.79" fill="white" transform="translate(199 1231.6)"/>
</clipPath>
<clipPath id="clip19_1_1690">
<rect width="12.71" height="8.79" fill="white" transform="translate(114 1297.6)"/>
</clipPath>
<clipPath id="clip20_1_1690">
<rect width="12.71" height="8.79" fill="white" transform="translate(0 1668)"/>
</clipPath>
</defs>
</svg>
