<?xml version="1.0" encoding="UTF-8" standalone="no"?>
<svg
   width="241"
   height="1769"
   viewBox="0 0 241 1769"
   fill="none"
   version="1.1"
   id="svg93"
   xmlns="http://www.w3.org/2000/svg"
   xmlns:svg="http://www.w3.org/2000/svg">
  <g
     clip-path="url(#clip3_1_1690)"
     id="g17"
     transform="translate(0,-293.4682)">
    <path
       d="m 124.191,294 v 68 h -7.993 c -2.213,0 -4.348,0.816 -5.998,2.291 l -8.272,7.399 c -1.65,1.475 -3.7852,2.29 -5.9981,2.29 H 77.0791 c -2.1522,0 -4.233,-0.771 -5.865,-2.174 L 62.337,364.174 C 60.7051,362.771 58.6242,362 56.4721,362 H 44.4038 c -1.7552,0 -3.3678,0.611 -4.6367,1.631 C 37.9144,365.26 37,367.953 37,371 v 8 H 0 V 302.997 C 0,298.028 4.02795,294 8.99668,294 H 21.4985 c 2.0956,0 4.1255,0.732 5.7393,2.068 l 9.0088,7.463 c 1.6138,1.337 3.6437,2.068 5.7392,2.068 h 18.5308 c 2.0955,0 4.1254,-0.731 5.7392,-2.068 l 9.0088,-7.463 C 76.8784,294.732 78.9083,294 81.0038,294 Z"
       fill="#ffab19"
       id="path13" />
    <path
       d="m 36,371 v 7 H 1 V 302.997 C 1,298.58 4.58024,295 8.99668,295 H 21.4985 c 1.8627,0 3.6669,0.65 5.1013,1.838 l 9.0089,7.463 c 1.7932,1.486 4.0486,2.298 6.3771,2.298 h 18.5308 c 2.3285,0 4.5839,-0.812 6.3771,-2.298 l 9.0088,-7.463 C 77.337,295.65 79.1412,295 81.0038,295 h 42.1872 v 66 h -6.993 c -2.459,0 -4.832,0.906 -6.664,2.545 l -8.273,7.399 c -1.4662,1.311 -3.3641,2.036 -5.3311,2.036 H 77.0791 c -1.9129,0 -3.7625,-0.685 -5.2131,-1.932 l -8.8771,-7.632 C 61.1756,361.857 58.8634,361 56.4721,361 H 44.4038 c -1.9913,0 -3.8233,0.694 -5.2635,1.852 l -0.017,0.014 -0.0164,0.014 C 36.9634,364.764 36,367.783 36,371 Z"
       stroke="#cf8b17"
       stroke-width="2"
       id="path14" />
    <g
       clip-path="url(#clip4_1_1690)"
       id="g16">
      <path
         d="M 232.003,294 H 124 v 68 h 108.003 c 4.969,0 8.997,-4.028 8.997,-8.997 V 302.997 C 241,298.028 236.972,294 232.003,294 Z"
         fill="#ffab19"
         id="path15" />
      <path
         d="m 125,361 v -66 h 107.003 c 4.417,0 7.997,3.58 7.997,7.997 v 50.006 c 0,4.417 -3.58,7.997 -7.997,7.997 z"
         stroke="#cf8b17"
         stroke-width="2"
         id="path16" />
    </g>
    <rect
       x="122.191"
       y="296"
       width="4"
       height="64"
       fill="#ffab19"
       id="rect16" />
  </g>
  <defs
     id="defs93">
    <clipPath
       id="clip3_1_1690">
      <rect
         width="241"
         height="85"
         fill="#ffffff"
         transform="translate(0,294)"
         id="rect76"
         x="0"
         y="0" />
    </clipPath>
    <clipPath
       id="clip4_1_1690">
      <rect
         width="117"
         height="68"
         fill="#ffffff"
         transform="translate(124,294)"
         id="rect77"
         x="0"
         y="0" />
    </clipPath>
  </defs>
</svg>
