<?xml version="1.0" encoding="UTF-8" standalone="no"?>
<svg
   width="241"
   height="1769"
   viewBox="0 0 241 1769"
   fill="none"
   version="1.1"
   id="svg93"
   xmlns="http://www.w3.org/2000/svg"
   xmlns:svg="http://www.w3.org/2000/svg">
  <rect
     x="0.54419398"
     y="0.53016114"
     width="226.71001"
     height="43"
     rx="19.5"
     fill="#4280d7"
     id="rect51" />
  <rect
     x="0.54419398"
     y="0.53016114"
     width="226.71001"
     height="43"
     rx="19.5"
     stroke="#3373cc"
     id="rect52" />
  <g
     clip-path="url(#clip18_1_1690)"
     id="g54"
     transform="translate(0.04419388,-1213.9697)">
    <g
       opacity="0.1"
       id="g53">
      <path
         opacity="0.1"
         d="m 211.71,1234.04 c 0.002,0.32 -0.06,0.64 -0.182,0.94 -0.122,0.29 -0.302,0.56 -0.528,0.78 l -3.92,3.92 c -0.459,0.46 -1.079,0.72 -1.725,0.72 -0.646,0 -1.266,-0.26 -1.725,-0.72 l -3.91,-3.92 c -0.228,-0.22 -0.409,-0.49 -0.532,-0.78 -0.124,-0.3 -0.188,-0.61 -0.188,-0.94 0.002,-0.64 0.257,-1.26 0.71,-1.73 0.29,-0.24 0.72,-0.71 5.65,-0.71 4.93,0 5.39,0.46 5.64,0.71 0.226,0.23 0.405,0.5 0.527,0.8 0.122,0.3 0.184,0.61 0.183,0.93 z"
         fill="#231f20"
         id="path53" />
    </g>
    <path
       d="m 205.36,1239.39 c -0.376,0 -0.735,-0.15 -1,-0.42 l -3.94,-3.92 c -0.259,-0.26 -0.404,-0.62 -0.404,-1 0,-0.37 0.145,-0.73 0.404,-1 0.56,-0.56 9.31,-0.56 9.87,0 0.259,0.27 0.404,0.63 0.404,1 0,0.38 -0.145,0.74 -0.404,1 l -3.92,3.92 c -0.268,0.27 -0.631,0.42 -1.01,0.42 z"
       fill="#ffffff"
       id="path54" />
  </g>
  <defs
     id="defs93">
    <clipPath
       id="clip18_1_1690">
      <rect
         width="12.71"
         height="8.79"
         fill="#ffffff"
         transform="translate(199,1231.6)"
         id="rect91"
         x="0"
         y="0" />
    </clipPath>
  </defs>
</svg>
