<?xml version="1.0" encoding="UTF-8" standalone="no"?>
<svg
   width="241"
   height="1769"
   viewBox="0 0 241 1769"
   fill="none"
   version="1.1"
   id="svg93"
   xmlns="http://www.w3.org/2000/svg"
   xmlns:svg="http://www.w3.org/2000/svg">
  <g
     clip-path="url(#clip13_1_1690)"
     id="g42"
     transform="translate(0.04540036,-822.0197)">
    <g
       clip-path="url(#clip14_1_1690)"
       id="g37">
      <path
         d="M 77.0791,883 H 95.93 c 2.2128,0 4.348,-0.816 5.998,-2.291 l 8.272,-7.399 c 1.65,-1.475 3.785,-2.29 5.998,-2.29 h 7.993 v 52 H 81.1978 c -2.2129,0 -4.3482,0.815 -5.9976,2.29 l -8.2727,7.399 C 65.2781,934.184 63.1428,935 60.93,935 H 42.0791 c -2.1522,0 -4.233,-0.772 -5.8649,-2.175 l -8.8772,-7.631 c -1.6319,-1.403 -3.7128,-2.174 -5.8649,-2.174 h -5.0683 l -7.19943,0.166 C 4.15567,923.302 0,919.242 0,914.191 V 854.02 h 37.0017 v 8 c 0,3.046 0.9136,5.74 2.7656,7.368 1.2688,1.021 2.8813,1.632 4.6365,1.632 h 12.0683 c 2.1521,0 4.233,0.771 5.8649,2.174 l 8.8772,7.631 c 1.6319,1.403 3.7127,2.175 5.8649,2.175 z"
         fill="#ffab19"
         id="path36" />
      <path
         d="M 1,914.191 V 855.02 h 35.0017 v 7 c 0,3.216 0.9626,6.235 3.1053,8.119 l 0.0164,0.014 0.0171,0.014 c 1.44,1.159 3.272,1.853 5.2633,1.853 h 12.0683 c 1.9129,0 3.7625,0.685 5.213,1.932 l 8.8772,7.632 c 1.8133,1.559 4.1254,2.416 6.5168,2.416 H 95.93 c 2.4588,0 4.831,-0.906 6.664,-2.546 l 8.273,-7.398 c 1.466,-1.312 3.364,-2.036 5.331,-2.036 h 6.993 v 50 H 81.1978 c -2.4589,0 -4.8315,0.906 -6.6642,2.545 l -8.2727,7.399 C 64.7948,933.275 62.8969,934 60.93,934 H 42.0791 c -1.9129,0 -3.7625,-0.686 -5.213,-1.933 l -8.8772,-7.631 c -1.8133,-1.559 -4.1254,-2.416 -6.5168,-2.416 h -5.0683 -0.0115 -0.0115 l -7.19952,0.166 C 4.69376,922.29 1,918.68 1,914.191 Z"
         stroke="#cf8b17"
         stroke-width="2"
         id="path37" />
    </g>
    <g
       clip-path="url(#clip15_1_1690)"
       id="g39">
      <path
         d="M 232.003,871.02 H 124 v 52 h 108.003 c 4.969,0 8.997,-4.028 8.997,-8.997 v -34.007 c 0,-4.969 -4.028,-8.996 -8.997,-8.996 z"
         fill="#ffab19"
         id="path38" />
      <path
         d="m 125,922.02 v -50 h 107.003 c 4.417,0 7.997,3.58 7.997,7.996 v 34.007 c 0,4.416 -3.58,7.997 -7.997,7.997 z"
         stroke="#cf8b17"
         stroke-width="2"
         id="path39" />
    </g>
    <rect
       x="122.191"
       y="873.02002"
       width="4"
       height="48"
       fill="#ffab19"
       id="rect39" />
    <path
       d="m 0,824.02 h 37 v 30 H 0 Z"
       fill="#ffab19"
       id="path40" />
    <path
       d="m 1,825.02 h 35 v 28 H 1 Z"
       stroke="#cf8b17"
       stroke-width="2"
       id="path41" />
    <path
       d="m 2,822.02 h 33 v 34 H 2 Z"
       fill="#ffab19"
       id="path42" />
  </g>
  <defs
     id="defs93">
    <clipPath
       id="clip13_1_1690">
      <rect
         width="241"
         height="114"
         fill="#ffffff"
         transform="translate(0,822)"
         id="rect86"
         x="0"
         y="0" />
    </clipPath>
    <clipPath
       id="clip14_1_1690">
      <rect
         width="125"
         height="81"
         fill="#ffffff"
         transform="translate(0,854.02)"
         id="rect87"
         x="0"
         y="0" />
    </clipPath>
    <clipPath
       id="clip15_1_1690">
      <rect
         width="117"
         height="52"
         fill="#ffffff"
         transform="translate(124,871.02)"
         id="rect88"
         x="0"
         y="0" />
    </clipPath>
  </defs>
</svg>
