<?xml version="1.0" encoding="UTF-8" standalone="no"?>
<svg
   width="241"
   height="1769"
   viewBox="0 0 241 1769"
   fill="none"
   version="1.1"
   id="svg93"
   xmlns="http://www.w3.org/2000/svg"
   xmlns:svg="http://www.w3.org/2000/svg">
  <g
     clip-path="url(#clip16_1_1690)"
     id="g47"
     transform="translate(8.5294e-4,-957.99838)">
    <path
       d="m 124.191,975 v 52 h -7.993 c -2.213,0 -4.348,0.82 -5.998,2.29 l -8.272,7.4 c -1.65,1.47 -3.7852,2.29 -5.9981,2.29 H 77.0791 c -2.1522,0 -4.233,-0.77 -5.865,-2.17 l -8.8771,-7.64 c -1.6319,-1.4 -3.7128,-2.17 -5.8649,-2.17 H 44.4038 c -1.7552,0 -3.3678,0.61 -4.6367,1.63 C 37.9144,1030.26 37,1032.95 37,1036 v 8 H 0 v -86 h 37 v 8 c 0,4.971 2.4333,9 7.4038,9 h 12.0683 c 2.0956,0 4.1254,0.732 5.7392,2.068 l 9.0089,7.463 c 1.6138,1.337 3.6436,2.068 5.7392,2.068 h 18.5307 c 2.0956,0 4.1254,-0.731 5.7389,-2.068 l 9.009,-7.463 c 1.614,-1.336 3.644,-2.068 5.739,-2.068 z"
       fill="#ffab19"
       id="path43" />
    <path
       d="m 36,1036 v 7 H 1 v -84 h 35 v 7 c 0,2.633 0.6424,5.116 2.0399,6.967 1.4234,1.885 3.5732,3.033 6.3639,3.033 h 12.0683 c 1.8627,0 3.6669,0.65 5.1013,1.838 l 9.0088,7.463 c 1.7932,1.486 4.0487,2.298 6.3772,2.298 h 18.5307 c 2.3285,0 4.5839,-0.812 6.3769,-2.298 l 9.009,-7.463 c 1.435,-1.188 3.239,-1.838 5.101,-1.838 h 7.214 v 50 h -6.993 c -2.459,0 -4.832,0.91 -6.664,2.55 l -8.273,7.39 c -1.4662,1.32 -3.3641,2.04 -5.3311,2.04 H 77.0791 c -1.9129,0 -3.7625,-0.69 -5.2131,-1.93 l -8.8771,-7.63 C 61.1756,1026.86 58.8634,1026 56.4721,1026 H 44.4038 c -1.9913,0 -3.8233,0.69 -5.2635,1.85 l -0.017,0.02 -0.0164,0.01 C 36.9634,1029.76 36,1032.78 36,1036 Z"
       stroke="#cf8b17"
       stroke-width="2"
       id="path44" />
    <g
       clip-path="url(#clip17_1_1690)"
       id="g46">
      <path
         d="M 232.003,975 H 124 v 52 h 108.003 c 4.969,0 8.997,-4.03 8.997,-9 V 983.997 C 241,979.028 236.972,975 232.003,975 Z"
         fill="#ffab19"
         id="path45" />
      <path
         d="m 125,1026 v -50 h 107.003 c 4.417,0 7.997,3.58 7.997,7.997 V 1018 c 0,4.42 -3.58,8 -7.997,8 z"
         stroke="#cf8b17"
         stroke-width="2"
         id="path46" />
    </g>
    <rect
       x="122.191"
       y="977"
       width="4"
       height="48"
       fill="#ffab19"
       id="rect46" />
  </g>
  <defs
     id="defs93">
    <clipPath
       id="clip16_1_1690">
      <rect
         width="241"
         height="102"
         fill="#ffffff"
         transform="translate(0,958)"
         id="rect89"
         x="0"
         y="0" />
    </clipPath>
    <clipPath
       id="clip17_1_1690">
      <rect
         width="117"
         height="52"
         fill="#ffffff"
         transform="translate(124,975)"
         id="rect90"
         x="0"
         y="0" />
    </clipPath>
  </defs>
</svg>
