<?xml version="1.0" encoding="UTF-8" standalone="no"?>
<svg
   width="241"
   height="1769"
   viewBox="0 0 241 1769"
   fill="none"
   version="1.1"
   id="svg93"
   xmlns="http://www.w3.org/2000/svg"
   xmlns:svg="http://www.w3.org/2000/svg">
  <g
     clip-path="url(#clip9_1_1690)"
     id="g29"
     transform="translate(0.36320329,-583.30438)">
    <path
       d="m 124.191,583 v 68 h -7.993 c -2.213,0 -4.348,0.816 -5.998,2.291 l -8.272,7.399 c -1.65,1.475 -3.7852,2.29 -5.9981,2.29 H 77.0791 c -2.1522,0 -4.233,-0.771 -5.865,-2.174 L 62.337,653.174 C 60.7051,651.771 58.6242,651 56.4721,651 H 44.4038 c -1.7552,0 -3.3678,0.611 -4.6367,1.631 C 37.9144,654.26 37,656.953 37,660 v 8 H 0 V 591.997 C 0,587.028 4.02795,583 8.99668,583 H 21.4985 c 2.0956,0 4.1255,0.732 5.7393,2.068 l 9.0088,7.463 c 1.6138,1.337 3.6437,2.068 5.7392,2.068 h 18.5308 c 2.0955,0 4.1254,-0.731 5.7392,-2.068 l 9.0088,-7.463 C 76.8784,583.732 78.9083,583 81.0038,583 Z"
       fill="#ffab19"
       id="path25" />
    <path
       d="m 36,660 v 7 H 1 V 591.997 C 1,587.58 4.58024,584 8.99668,584 H 21.4985 c 1.8627,0 3.6669,0.65 5.1013,1.838 l 9.0089,7.463 c 1.7932,1.486 4.0486,2.298 6.3771,2.298 h 18.5308 c 2.3285,0 4.5839,-0.812 6.3771,-2.298 l 9.0088,-7.463 C 77.337,584.65 79.1412,584 81.0038,584 h 42.1872 v 66 h -6.993 c -2.459,0 -4.832,0.906 -6.664,2.545 l -8.273,7.399 c -1.4662,1.311 -3.3641,2.036 -5.3311,2.036 H 77.0791 c -1.9129,0 -3.7625,-0.685 -5.2131,-1.932 l -8.8771,-7.632 C 61.1756,650.857 58.8634,650 56.4721,650 H 44.4038 c -1.9913,0 -3.8233,0.694 -5.2635,1.852 l -0.017,0.014 -0.0164,0.014 C 36.9634,653.764 36,656.783 36,660 Z"
       stroke="#cf8b17"
       stroke-width="2"
       id="path26" />
    <g
       clip-path="url(#clip10_1_1690)"
       id="g28">
      <path
         d="M 232.003,583 H 124 v 68 h 108.003 c 4.969,0 8.997,-4.028 8.997,-8.997 V 591.997 C 241,587.028 236.972,583 232.003,583 Z"
         fill="#ffab19"
         id="path27" />
      <path
         d="m 125,650 v -66 h 107.003 c 4.417,0 7.997,3.58 7.997,7.997 v 50.006 c 0,4.417 -3.58,7.997 -7.997,7.997 z"
         stroke="#cf8b17"
         stroke-width="2"
         id="path28" />
    </g>
    <rect
       x="122.191"
       y="585"
       width="4"
       height="64"
       fill="#ffab19"
       id="rect28" />
  </g>
  <g
     clip-path="url(#clip11_1_1690)"
     id="g33"
     transform="translate(0.36320329,-583.30438)">
    <path
       d="m 124.191,715 v 52 h -7.993 c -2.213,0 -4.348,0.816 -5.998,2.291 l -8.272,7.399 c -1.65,1.475 -3.7852,2.29 -5.9981,2.29 H 77.0791 c -2.1522,0 -4.233,-0.771 -5.865,-2.174 L 62.337,769.174 C 60.7051,767.771 58.6242,767 56.4721,767 H 44.4038 c -1.7552,0 -3.3678,0.611 -4.6367,1.631 C 37.9144,770.26 37,772.953 37,776 v 8 H 0 v -86 h 37 v 8 c 0,4.971 2.4333,9 7.4038,9 h 12.0683 c 2.0956,0 4.1254,0.732 5.7392,2.068 l 9.0089,7.463 c 1.6138,1.337 3.6436,2.068 5.7392,2.068 h 18.5307 c 2.0956,0 4.1254,-0.731 5.7389,-2.068 l 9.009,-7.463 c 1.614,-1.336 3.644,-2.068 5.739,-2.068 z"
       fill="#ffab19"
       id="path29" />
    <path
       d="m 36,776 v 7 H 1 v -84 h 35 v 7 c 0,2.633 0.6424,5.116 2.0399,6.967 1.4234,1.885 3.5732,3.033 6.3639,3.033 h 12.0683 c 1.8627,0 3.6669,0.65 5.1013,1.838 l 9.0088,7.463 c 1.7932,1.486 4.0487,2.298 6.3772,2.298 h 18.5307 c 2.3285,0 4.5839,-0.812 6.3769,-2.298 l 9.009,-7.463 c 1.435,-1.188 3.239,-1.838 5.101,-1.838 h 7.214 v 50 h -6.993 c -2.459,0 -4.832,0.906 -6.664,2.545 l -8.273,7.399 c -1.4662,1.311 -3.3641,2.036 -5.3311,2.036 H 77.0791 c -1.9129,0 -3.7625,-0.685 -5.2131,-1.932 l -8.8771,-7.632 C 61.1756,766.857 58.8634,766 56.4721,766 H 44.4038 c -1.9913,0 -3.8233,0.694 -5.2635,1.852 l -0.017,0.014 -0.0164,0.014 C 36.9634,769.764 36,772.783 36,776 Z"
       stroke="#cf8b17"
       stroke-width="2"
       id="path30" />
    <g
       clip-path="url(#clip12_1_1690)"
       id="g32">
      <path
         d="M 232.003,715 H 124 v 52 h 108.003 c 4.969,0 8.997,-4.028 8.997,-8.997 V 723.997 C 241,719.028 236.972,715 232.003,715 Z"
         fill="#ffab19"
         id="path31" />
      <path
         d="m 125,766 v -50 h 107.003 c 4.417,0 7.997,3.58 7.997,7.997 v 34.006 c 0,4.417 -3.58,7.997 -7.997,7.997 z"
         stroke="#cf8b17"
         stroke-width="2"
         id="path32" />
    </g>
    <rect
       x="122.191"
       y="717"
       width="4"
       height="48"
       fill="#ffab19"
       id="rect32" />
  </g>
  <path
     d="M 0.36320329,84.695624 H 37.363204 V 114.69562 H 0.36320329 Z"
     fill="#ffab19"
     id="path33" />
  <path
     d="M 1.3632033,85.695624 H 36.363204 V 113.69562 H 1.3632033 Z"
     stroke="#cf8b17"
     stroke-width="2"
     id="path34" />
  <path
     d="M 2.3632032,82.695624 H 35.363204 V 116.69562 H 2.3632032 Z"
     fill="#ffab19"
     id="path35" />
  <defs
     id="defs93">
    <clipPath
       id="clip9_1_1690">
      <rect
         width="241"
         height="85"
         fill="#ffffff"
         transform="translate(0,583)"
         id="rect82"
         x="0"
         y="0" />
    </clipPath>
    <clipPath
       id="clip10_1_1690">
      <rect
         width="117"
         height="68"
         fill="#ffffff"
         transform="translate(124,583)"
         id="rect83"
         x="0"
         y="0" />
    </clipPath>
    <clipPath
       id="clip11_1_1690">
      <rect
         width="241"
         height="102"
         fill="#ffffff"
         transform="translate(0,698)"
         id="rect84"
         x="0"
         y="0" />
    </clipPath>
    <clipPath
       id="clip12_1_1690">
      <rect
         width="117"
         height="52"
         fill="#ffffff"
         transform="translate(124,715)"
         id="rect85"
         x="0"
         y="0" />
    </clipPath>
  </defs>
</svg>
