<?xml version="1.0" encoding="UTF-8" standalone="no"?>
<svg
   width="241"
   height="1769"
   viewBox="0 0 241 1769"
   fill="none"
   version="1.1"
   id="svg93"
   xmlns="http://www.w3.org/2000/svg"
   xmlns:svg="http://www.w3.org/2000/svg">
  <path
     d="M 9.7230764,93.304015 H 22.198506 c 2.1521,0 4.233,0.771 5.8649,2.174 l 8.8771,7.631995 c 1.632,1.403 3.7128,2.174 5.865,2.174 h 18.8508 c 2.2129,0 4.3482,-0.815 5.9976,-2.291 l 8.2727,-7.397995 c 1.6494,-1.476 3.7847,-2.291 5.9976,-2.291 h 69.993204 v -68 h -8.742 c 0,0 -17.785,-23.6140003 -68.708004,-23.6140003 -50.9226,0 -73.74099956,23.6140003 -73.74099956,23.6140003 v 59.003 c 0,4.969 4.02793996,8.997 8.99666996,8.997 z"
     fill="#ffbf00"
     id="path9" />
  <path
     d="m 142.37641,25.905015 0.001,0.001 v 0.001 l 0.299,0.397 h 0.499 7.742 v 66 H 81.924206 c -2.4589,0 -4.8315,0.906 -6.6642,2.545 l -8.2727,7.398995 c -1.4661,1.311 -3.364,2.036 -5.331,2.036 h -18.8508 c -1.9129,0 -3.7625,-0.686 -5.2131,-1.933 l -8.8771,-7.630995 c -1.8133,-1.559 -4.1255,-2.416 -6.5168,-2.416 H 9.7230764 c -4.41644,0 -7.99667,-3.58 -7.99667,-7.997 v -58.584 c 0.17047,-0.164 0.41874,-0.396 0.74583,-0.688 0.70401,-0.628 1.77306,-1.533 3.2174,-2.622 2.88865,-2.179 7.2780696,-5.096 13.2506696,-8.018 11.9409,-5.8400003 30.2265,-11.7050003 55.5271,-11.7050003 25.2996,0 42.311004,5.864 52.971004,11.6850003 5.333,2.912 9.084,5.817 11.494,7.983 1.205,1.083 2.075,1.981 2.639,2.603 0.282,0.311 0.487,0.553 0.621,0.714 0.066,0.081 0.114,0.141 0.145,0.18 0.008,0.01 0.014,0.018 0.019,0.025 0.006,0.007 0.01,0.013 0.014,0.017 z"
     stroke="#cc9900"
     stroke-width="2"
     id="path10" />
  <g
     clip-path="url(#clip2_1_1690)"
     id="g12"
     transform="translate(0.72640644,-178.69599)">
    <path
       d="M 203.003,204 H 149 v 68 h 54.003 c 4.969,0 8.997,-4.028 8.997,-8.997 V 212.997 C 212,208.028 207.972,204 203.003,204 Z"
       fill="#ffbf00"
       id="path11" />
    <path
       d="m 150,271 v -66 h 53.003 c 4.417,0 7.997,3.58 7.997,7.997 v 50.006 c 0,4.417 -3.58,7.997 -7.997,7.997 z"
       stroke="#cc9900"
       stroke-width="2"
       id="path12" />
  </g>
  <rect
     x="147.72641"
     y="27.304014"
     width="4"
     height="64"
     fill="#ffbf00"
     id="rect12" />
  <defs
     id="defs93">
    <clipPath
       id="clip2_1_1690">
      <rect
         width="63"
         height="68"
         fill="#ffffff"
         transform="translate(149,204)"
         id="rect75"
         x="0"
         y="0" />
    </clipPath>
  </defs>
</svg>
