<?xml version="1.0" encoding="UTF-8" standalone="no"?>
<svg
   width="112"
   height="80"
   viewBox="0 0 112 80"
   fill="none"
   version="1.1"
   id="svg93"
   xmlns="http://www.w3.org/2000/svg"
   xmlns:svg="http://www.w3.org/2000/svg">
  <path
     d="M 0,8.99668 C 0,4.02795 4.02795,0 8.99668,0 H 21.4985 c 2.0956,0 4.1255,0.731537 5.7393,2.06836 l 9.0088,7.46266 c 1.6138,1.33688 3.6437,2.06838 5.7392,2.06838 h 18.5308 c 2.0955,0 4.1254,-0.7315 5.7392,-2.06837 L 75.2646,2.06837 C 76.8784,0.731538 78.9082,0 81.0038,0 h 8.1873 v 68 h -7.9933 c -2.2129,0 -4.3482,0.8156 -5.9976,2.2908 l -8.2727,7.3988 c -1.6494,1.4752 -3.7847,2.2907 -5.9976,2.2907 H 42.0791 c -2.1522,0 -4.233,-0.7714 -5.865,-2.1744 L 27.337,70.1744 C 25.7051,68.7715 23.6242,68 21.4721,68 H 8.99667 C 4.02794,68 0,63.972 0,59.0033 Z"
     fill="#4c97ff"
     id="path1" />
  <path
     d="M 1,8.99668 C 1,4.58024 4.58024,1 8.99668,1 H 21.4985 c 1.8627,0 3.6669,0.65023 5.1013,1.83846 l 9.0089,7.46264 c 1.7932,1.4854 4.0486,2.2983 6.3771,2.2983 h 18.5308 c 2.3285,0 4.5839,-0.8129 6.3771,-2.2983 L 75.9025,2.83846 C 77.337,1.65023 79.1412,1 81.0038,1 h 7.1873 v 66 h -6.9933 c -2.4589,0 -4.8315,0.9062 -6.6642,2.5454 l -8.2727,7.3988 c -1.4661,1.3112 -3.364,2.0361 -5.331,2.0361 H 42.0791 c -1.9129,0 -3.7625,-0.6857 -5.2131,-1.9327 L 27.9889,69.4161 C 26.1756,67.8572 23.8634,67 21.4721,67 H 8.99667 C 4.58023,67 1,63.4198 1,59.0033 Z"
     stroke="#3373cc"
     stroke-width="2"
     id="path2" />
  <g
     clip-path="url(#clip0_1_1690)"
     id="g4">
    <path
       d="M 103.003,0 H 87 v 68 h 16.003 C 107.972,68 112,63.972 112,59.0033 V 8.99668 C 112,4.02795 107.972,0 103.003,0 Z"
       fill="#4c97ff"
       id="path3" />
    <path
       d="M 88,67 V 1 h 15.003 C 107.42,1 111,4.58024 111,8.99668 V 59.0033 C 111,63.4198 107.42,67 103.003,67 Z"
       stroke="#3373cc"
       stroke-width="2"
       id="path4" />
  </g>
  <rect
     x="86"
     y="2"
     width="4"
     height="64"
     fill="#4c97ff"
     id="rect4" />
  <defs
     id="defs93">
    <clipPath
       id="clip0_1_1690">
      <rect
         width="25"
         height="68"
         fill="#ffffff"
         transform="translate(87)"
         id="rect73"
         x="0"
         y="0" />
    </clipPath>
  </defs>
</svg>
